<svg width="201" height="750" viewBox="0 0 201 750" fill="none" xmlns="http://www.w3.org/2000/svg">
<rect width="201" height="750" fill="#0C4A49"/>
<path d="M77.8926 665.425V650.967L105.612 632.1H77.8926V617.505H128V632.1L100.485 650.864H128V665.425H77.8926ZM102.98 609.165C94.8001 609.165 88.4313 606.886 83.874 602.329C79.3167 597.772 77.0381 591.426 77.0381 583.291C77.0381 574.951 79.2826 568.525 83.7715 564.014C88.2376 559.502 94.5039 557.246 102.57 557.246C108.426 557.246 113.234 558.237 116.994 560.22C120.731 562.179 123.648 565.028 125.744 568.765C127.818 572.479 128.854 577.116 128.854 582.676C128.854 588.327 127.954 593.009 126.154 596.724C124.354 600.415 121.506 603.411 117.609 605.713C113.713 608.014 108.837 609.165 102.98 609.165ZM103.049 593.682C108.107 593.682 111.742 592.747 113.952 590.879C116.162 588.988 117.268 586.424 117.268 583.188C117.268 579.862 116.185 577.287 114.021 575.464C111.856 573.641 107.971 572.729 102.365 572.729C97.6484 572.729 94.2077 573.687 92.043 575.601C89.8555 577.492 88.7617 580.067 88.7617 583.325C88.7617 586.447 89.8669 588.953 92.0771 590.845C94.2874 592.736 97.9447 593.682 103.049 593.682ZM111.423 551.606L110.5 536.875C112.893 536.556 114.715 535.907 115.969 534.927C117.997 533.332 119.011 531.053 119.011 528.091C119.011 525.881 118.498 524.183 117.473 522.998C116.424 521.79 115.217 521.187 113.85 521.187C112.551 521.187 111.389 521.756 110.363 522.896C109.338 524.035 108.369 526.678 107.458 530.825C105.931 537.616 103.903 542.458 101.374 545.352C98.8447 548.268 95.6204 549.727 91.7012 549.727C89.1263 549.727 86.6995 548.986 84.4209 547.505C82.1195 546.001 80.3193 543.757 79.0205 540.771C77.6989 537.764 77.0381 533.651 77.0381 528.433C77.0381 522.03 78.2344 517.153 80.627 513.804C82.9967 510.431 86.7793 508.426 91.9746 507.788L92.8291 522.383C90.5732 522.77 88.9326 523.59 87.9072 524.844C86.8818 526.074 86.3691 527.783 86.3691 529.971C86.3691 531.771 86.7565 533.127 87.5312 534.038C88.2832 534.95 89.2061 535.405 90.2998 535.405C91.0973 535.405 91.8151 535.029 92.4531 534.277C93.1139 533.548 93.7292 531.816 94.2988 529.082C95.7572 522.314 97.2383 517.472 98.7422 514.556C100.223 511.616 102.069 509.486 104.279 508.164C106.49 506.82 108.962 506.147 111.696 506.147C114.909 506.147 117.871 507.036 120.583 508.813C123.295 510.591 125.357 513.075 126.77 516.265C128.16 519.455 128.854 523.477 128.854 528.33C128.854 536.852 127.214 542.754 123.933 546.035C120.651 549.316 116.481 551.174 111.423 551.606ZM111.423 501.021L110.5 486.289C112.893 485.97 114.715 485.321 115.969 484.341C117.997 482.746 119.011 480.467 119.011 477.505C119.011 475.295 118.498 473.597 117.473 472.412C116.424 471.204 115.217 470.601 113.85 470.601C112.551 470.601 111.389 471.17 110.363 472.31C109.338 473.449 108.369 476.092 107.458 480.239C105.931 487.03 103.903 491.872 101.374 494.766C98.8447 497.682 95.6204 499.141 91.7012 499.141C89.1263 499.141 86.6995 498.4 84.4209 496.919C82.1195 495.415 80.3193 493.171 79.0205 490.186C77.6989 487.178 77.0381 483.065 77.0381 477.847C77.0381 471.444 78.2344 466.567 80.627 463.218C82.9967 459.845 86.7793 457.84 91.9746 457.202L92.8291 471.797C90.5732 472.184 88.9326 473.005 87.9072 474.258C86.8818 475.488 86.3691 477.197 86.3691 479.385C86.3691 481.185 86.7565 482.541 87.5313 483.452C88.2832 484.364 89.2061 484.819 90.2998 484.819C91.0973 484.819 91.8151 484.443 92.4531 483.691C93.1139 482.962 93.7292 481.23 94.2988 478.496C95.7572 471.729 97.2383 466.886 98.7422 463.97C100.223 461.03 102.069 458.9 104.279 457.578C106.49 456.234 108.962 455.562 111.696 455.562C114.909 455.562 117.871 456.45 120.583 458.228C123.295 460.005 125.357 462.489 126.77 465.679C128.16 468.869 128.854 472.891 128.854 477.744C128.854 486.266 127.214 492.168 123.933 495.449C120.651 498.73 116.481 500.588 111.423 501.021ZM119.729 416.904V434.541L128 436.968V452.793L77.8926 433.96V417.075L128 398.242V414.443L119.729 416.904ZM108.894 420.151L90.8809 425.688L108.894 431.191V420.151ZM77.8926 369.907L77.8926 328.413H88.5908V354.39H96.5547V330.293H106.774V354.39H116.652V327.661H128V369.907H77.8926ZM120.686 274.785C122.03 272.848 122.873 271.584 123.215 270.991C123.716 270.103 124.297 268.906 124.958 267.402L133.64 271.709C132.591 273.874 131.338 276.016 129.88 278.135C128.444 280.254 127.362 281.735 126.633 282.578C128.114 285.996 128.854 290.28 128.854 295.43C128.854 303.04 126.872 309.045 122.907 313.442C118.213 318.638 111.617 321.235 103.117 321.235C94.8685 321.235 88.4655 318.968 83.9082 314.434C79.3281 309.876 77.0381 303.519 77.0381 295.361C77.0381 287.044 79.2712 280.63 83.7373 276.118C88.2035 271.584 94.5951 269.316 102.912 269.316C110.318 269.316 116.242 271.139 120.686 274.785ZM112.756 286.646C110.546 285.415 107.242 284.8 102.844 284.8C97.7852 284.8 94.1735 285.745 92.0088 287.637C89.8441 289.505 88.7617 292.091 88.7617 295.396C88.7617 298.472 89.8669 300.967 92.0771 302.881C94.2874 304.795 97.7396 305.752 102.434 305.752C107.902 305.752 111.742 304.818 113.952 302.949C116.162 301.081 117.268 298.517 117.268 295.259C117.268 294.211 117.165 293.219 116.96 292.285C115.707 293.584 114.522 295.635 113.405 298.438L107.834 296.011C108.085 294.644 108.392 293.584 108.757 292.832C109.121 292.057 110.078 290.565 111.628 288.354C111.993 287.83 112.368 287.261 112.756 286.646ZM77.8926 228.369V212.92H107.766C110.728 212.92 113.531 213.387 116.174 214.321C118.794 215.233 121.096 216.68 123.078 218.662C125.038 220.622 126.416 222.684 127.214 224.849C128.33 227.856 128.889 231.468 128.889 235.684C128.889 238.122 128.718 240.788 128.376 243.682C128.034 246.553 127.362 248.957 126.359 250.894C125.334 252.83 123.887 254.608 122.019 256.226C120.15 257.821 118.225 258.914 116.242 259.507C113.052 260.464 110.227 260.942 107.766 260.942H77.8926V245.493H108.483C111.218 245.493 113.36 244.741 114.909 243.237C116.436 241.711 117.199 239.603 117.199 236.914C117.199 234.248 116.447 232.163 114.943 230.659C113.417 229.132 111.263 228.369 108.483 228.369H77.8926ZM77.8926 202.051V186.533H128V202.051H77.8926ZM77.8926 175.459V149.722C77.8926 144.116 79.2256 139.924 81.8916 137.144C84.5576 134.341 88.3516 132.939 93.2734 132.939C98.332 132.939 102.285 134.466 105.134 137.52C107.982 140.55 109.406 145.187 109.406 151.431V159.907H128V175.459H77.8926ZM99.2549 159.907V156.113C99.2549 153.128 98.7422 151.032 97.7168 149.824C96.6686 148.617 95.3356 148.013 93.7178 148.013C92.1455 148.013 90.8125 148.537 89.7188 149.585C88.625 150.633 88.0781 152.604 88.0781 155.498V159.907H99.2549ZM77.8926 124.839V83.3447H88.5908V109.321H96.5547V85.2246H106.774V109.321H116.652L116.652 82.5928H128L128 124.839H77.8926Z" fill="white"/>
<path d="M77.8926 665.425V650.967L105.612 632.1H77.8926V617.505H128V632.1L100.485 650.864H128V665.425H77.8926ZM102.98 609.165C94.8001 609.165 88.4313 606.886 83.874 602.329C79.3167 597.772 77.0381 591.426 77.0381 583.291C77.0381 574.951 79.2826 568.525 83.7715 564.014C88.2376 559.502 94.5039 557.246 102.57 557.246C108.426 557.246 113.234 558.237 116.994 560.22C120.731 562.179 123.648 565.028 125.744 568.765C127.818 572.479 128.854 577.116 128.854 582.676C128.854 588.327 127.954 593.009 126.154 596.724C124.354 600.415 121.506 603.411 117.609 605.713C113.713 608.014 108.837 609.165 102.98 609.165ZM103.049 593.682C108.107 593.682 111.742 592.747 113.952 590.879C116.162 588.988 117.268 586.424 117.268 583.188C117.268 579.862 116.185 577.287 114.021 575.464C111.856 573.641 107.971 572.729 102.365 572.729C97.6484 572.729 94.2077 573.687 92.043 575.601C89.8555 577.492 88.7617 580.067 88.7617 583.325C88.7617 586.447 89.8669 588.953 92.0771 590.845C94.2874 592.736 97.9447 593.682 103.049 593.682ZM111.423 551.606L110.5 536.875C112.893 536.556 114.715 535.907 115.969 534.927C117.997 533.332 119.011 531.053 119.011 528.091C119.011 525.881 118.498 524.183 117.473 522.998C116.424 521.79 115.217 521.187 113.85 521.187C112.551 521.187 111.389 521.756 110.363 522.896C109.338 524.035 108.369 526.678 107.458 530.825C105.931 537.616 103.903 542.458 101.374 545.352C98.8447 548.268 95.6204 549.727 91.7012 549.727C89.1263 549.727 86.6995 548.986 84.4209 547.505C82.1195 546.001 80.3193 543.757 79.0205 540.771C77.6989 537.764 77.0381 533.651 77.0381 528.433C77.0381 522.03 78.2344 517.153 80.627 513.804C82.9967 510.431 86.7793 508.426 91.9746 507.788L92.8291 522.383C90.5732 522.77 88.9326 523.59 87.9072 524.844C86.8818 526.074 86.3691 527.783 86.3691 529.971C86.3691 531.771 86.7565 533.127 87.5312 534.038C88.2832 534.95 89.2061 535.405 90.2998 535.405C91.0973 535.405 91.8151 535.029 92.4531 534.277C93.1139 533.548 93.7292 531.816 94.2988 529.082C95.7572 522.314 97.2383 517.472 98.7422 514.556C100.223 511.616 102.069 509.486 104.279 508.164C106.49 506.82 108.962 506.147 111.696 506.147C114.909 506.147 117.871 507.036 120.583 508.813C123.295 510.591 125.357 513.075 126.77 516.265C128.16 519.455 128.854 523.477 128.854 528.33C128.854 536.852 127.214 542.754 123.933 546.035C120.651 549.316 116.481 551.174 111.423 551.606ZM111.423 501.021L110.5 486.289C112.893 485.97 114.715 485.321 115.969 484.341C117.997 482.746 119.011 480.467 119.011 477.505C119.011 475.295 118.498 473.597 117.473 472.412C116.424 471.204 115.217 470.601 113.85 470.601C112.551 470.601 111.389 471.17 110.363 472.31C109.338 473.449 108.369 476.092 107.458 480.239C105.931 487.03 103.903 491.872 101.374 494.766C98.8447 497.682 95.6204 499.141 91.7012 499.141C89.1263 499.141 86.6995 498.4 84.4209 496.919C82.1195 495.415 80.3193 493.171 79.0205 490.186C77.6989 487.178 77.0381 483.065 77.0381 477.847C77.0381 471.444 78.2344 466.567 80.627 463.218C82.9967 459.845 86.7793 457.84 91.9746 457.202L92.8291 471.797C90.5732 472.184 88.9326 473.005 87.9072 474.258C86.8818 475.488 86.3691 477.197 86.3691 479.385C86.3691 481.185 86.7565 482.541 87.5313 483.452C88.2832 484.364 89.2061 484.819 90.2998 484.819C91.0973 484.819 91.8151 484.443 92.4531 483.691C93.1139 482.962 93.7292 481.23 94.2988 478.496C95.7572 471.729 97.2383 466.886 98.7422 463.97C100.223 461.03 102.069 458.9 104.279 457.578C106.49 456.234 108.962 455.562 111.696 455.562C114.909 455.562 117.871 456.45 120.583 458.228C123.295 460.005 125.357 462.489 126.77 465.679C128.16 468.869 128.854 472.891 128.854 477.744C128.854 486.266 127.214 492.168 123.933 495.449C120.651 498.73 116.481 500.588 111.423 501.021ZM119.729 416.904V434.541L128 436.968V452.793L77.8926 433.96V417.075L128 398.242V414.443L119.729 416.904ZM108.894 420.151L90.8809 425.688L108.894 431.191V420.151ZM77.8926 369.907L77.8926 328.413H88.5908V354.39H96.5547V330.293H106.774V354.39H116.652V327.661H128V369.907H77.8926ZM120.686 274.785C122.03 272.848 122.873 271.584 123.215 270.991C123.716 270.103 124.297 268.906 124.958 267.402L133.64 271.709C132.591 273.874 131.338 276.016 129.88 278.135C128.444 280.254 127.362 281.735 126.633 282.578C128.114 285.996 128.854 290.28 128.854 295.43C128.854 303.04 126.872 309.045 122.907 313.442C118.213 318.638 111.617 321.235 103.117 321.235C94.8685 321.235 88.4655 318.968 83.9082 314.434C79.3281 309.876 77.0381 303.519 77.0381 295.361C77.0381 287.044 79.2712 280.63 83.7373 276.118C88.2035 271.584 94.5951 269.316 102.912 269.316C110.318 269.316 116.242 271.139 120.686 274.785ZM112.756 286.646C110.546 285.415 107.242 284.8 102.844 284.8C97.7852 284.8 94.1735 285.745 92.0088 287.637C89.8441 289.505 88.7617 292.091 88.7617 295.396C88.7617 298.472 89.8669 300.967 92.0771 302.881C94.2874 304.795 97.7396 305.752 102.434 305.752C107.902 305.752 111.742 304.818 113.952 302.949C116.162 301.081 117.268 298.517 117.268 295.259C117.268 294.211 117.165 293.219 116.96 292.285C115.707 293.584 114.522 295.635 113.405 298.438L107.834 296.011C108.085 294.644 108.392 293.584 108.757 292.832C109.121 292.057 110.078 290.565 111.628 288.354C111.993 287.83 112.368 287.261 112.756 286.646ZM77.8926 228.369V212.92H107.766C110.728 212.92 113.531 213.387 116.174 214.321C118.794 215.233 121.096 216.68 123.078 218.662C125.038 220.622 126.416 222.684 127.214 224.849C128.33 227.856 128.889 231.468 128.889 235.684C128.889 238.122 128.718 240.788 128.376 243.682C128.034 246.553 127.362 248.957 126.359 250.894C125.334 252.83 123.887 254.608 122.019 256.226C120.15 257.821 118.225 258.914 116.242 259.507C113.052 260.464 110.227 260.942 107.766 260.942H77.8926V245.493H108.483C111.218 245.493 113.36 244.741 114.909 243.237C116.436 241.711 117.199 239.603 117.199 236.914C117.199 234.248 116.447 232.163 114.943 230.659C113.417 229.132 111.263 228.369 108.483 228.369H77.8926ZM77.8926 202.051V186.533H128V202.051H77.8926ZM77.8926 175.459V149.722C77.8926 144.116 79.2256 139.924 81.8916 137.144C84.5576 134.341 88.3516 132.939 93.2734 132.939C98.332 132.939 102.285 134.466 105.134 137.52C107.982 140.55 109.406 145.187 109.406 151.431V159.907H128V175.459H77.8926ZM99.2549 159.907V156.113C99.2549 153.128 98.7422 151.032 97.7168 149.824C96.6686 148.617 95.3356 148.013 93.7178 148.013C92.1455 148.013 90.8125 148.537 89.7188 149.585C88.625 150.633 88.0781 152.604 88.0781 155.498V159.907H99.2549ZM77.8926 124.839V83.3447H88.5908V109.321H96.5547V85.2246H106.774V109.321H116.652L116.652 82.5928H128L128 124.839H77.8926Z" fill="url(#paint0_linear_518_3193)"/>
<defs>
<linearGradient id="paint0_linear_518_3193" x1="100.5" y1="79" x2="100.5" y2="671" gradientUnits="userSpaceOnUse">
<stop stop-color="white"/>
<stop offset="0.711538" stop-color="#B1FFFF"/>
</linearGradient>
</defs>
</svg>
