<svg width="2086" height="445" viewBox="0 0 2086 445" fill="none" xmlns="http://www.w3.org/2000/svg">
<path d="M342.242 308.094C342.242 334.07 335.504 357.41 322.027 378.113C308.746 398.816 289.215 415.027 263.434 426.746C237.652 438.465 207.086 444.324 171.734 444.324C129.352 444.324 94.3906 436.316 66.8516 420.301C47.3203 408.777 31.4023 393.445 19.0977 374.305C6.98828 354.969 0.933594 336.219 0.933594 318.055C0.933594 307.508 4.54688 298.523 11.7734 291.102C19.1953 283.484 28.5703 279.676 39.8984 279.676C49.0781 279.676 56.793 282.605 63.043 288.465C69.4883 294.324 74.957 303.016 79.4492 314.539C84.918 328.211 90.7773 339.637 97.0273 348.816C103.473 357.996 112.457 365.613 123.98 371.668C135.504 377.527 150.641 380.457 169.391 380.457C195.172 380.457 216.07 374.5 232.086 362.586C248.297 350.477 256.402 335.438 256.402 317.469C256.402 303.211 252.008 291.688 243.219 282.898C234.625 273.914 223.395 267.078 209.527 262.391C195.855 257.703 177.496 252.723 154.449 247.449C123.59 240.223 97.7109 231.824 76.8125 222.254C56.1094 212.488 39.6055 199.305 27.3008 182.703C15.1914 165.906 9.13672 145.105 9.13672 120.301C9.13672 96.668 15.582 75.6719 28.4727 57.3125C41.3633 38.9531 60.0156 24.8906 84.4297 15.125C108.844 5.16406 137.555 0.183594 170.562 0.183594C196.93 0.183594 219.684 3.50391 238.824 10.1445C258.16 16.5898 274.176 25.2813 286.871 36.2188C299.566 46.9609 308.844 58.2891 314.703 70.2031C320.562 82.1172 323.492 93.7383 323.492 105.066C323.492 115.418 319.781 124.793 312.359 133.191C305.133 141.395 296.051 145.496 285.113 145.496C275.152 145.496 267.535 143.055 262.262 138.172C257.184 133.094 251.617 124.891 245.562 113.562C237.75 97.3516 228.375 84.7539 217.438 75.7695C206.5 66.5898 188.922 62 164.703 62C142.242 62 124.078 66.9805 110.211 76.9414C96.5391 86.707 89.7031 98.5234 89.7031 112.391C89.7031 120.984 92.0469 128.406 96.7344 134.656C101.422 140.906 107.867 146.277 116.07 150.77C124.273 155.262 132.574 158.777 140.973 161.316C149.371 163.855 163.238 167.566 182.574 172.449C206.793 178.113 228.668 184.363 248.199 191.199C267.926 198.035 284.625 206.336 298.297 216.102C312.164 225.867 322.906 238.27 330.523 253.309C338.336 268.152 342.242 286.414 342.242 308.094ZM605.035 0.183594C649.566 0.183594 687.75 9.26562 719.586 27.4297C751.617 45.3984 775.836 71.082 792.242 104.48C808.648 137.684 816.852 176.746 816.852 221.668C816.852 254.871 812.359 285.047 803.375 312.195C794.391 339.344 780.914 362.879 762.945 382.801C744.977 402.723 722.906 417.957 696.734 428.504C670.562 439.051 640.582 444.324 606.793 444.324C573.199 444.324 543.121 438.953 516.559 428.211C489.996 417.273 467.828 401.941 450.055 382.215C432.281 362.488 418.805 338.758 409.625 311.023C400.641 283.289 396.148 253.309 396.148 221.082C396.148 188.074 400.836 157.801 410.211 130.262C419.781 102.723 433.551 79.2852 451.52 59.9492C469.488 40.6133 491.363 25.8672 517.145 15.7109C542.926 5.35938 572.223 0.183594 605.035 0.183594ZM728.668 221.082C728.668 189.637 723.59 162.391 713.434 139.344C703.277 116.297 688.727 98.9141 669.781 87.1953C651.031 75.2812 629.449 69.3242 605.035 69.3242C587.652 69.3242 571.539 72.6445 556.695 79.2852C542.047 85.7305 529.352 95.2031 518.609 107.703C508.062 120.203 499.664 136.219 493.414 155.75C487.359 175.086 484.332 196.863 484.332 221.082C484.332 245.496 487.359 267.566 493.414 287.293C499.664 307.02 508.355 323.426 519.488 336.512C530.816 349.402 543.707 359.07 558.16 365.516C572.809 371.961 588.824 375.184 606.207 375.184C628.473 375.184 648.883 369.617 667.438 358.484C686.188 347.352 701.031 330.164 711.969 306.922C723.102 283.68 728.668 255.066 728.668 221.082ZM1074.66 437H943.414C924.469 437 910.895 432.801 902.691 424.402C894.684 415.809 890.68 402.234 890.68 383.68V60.8281C890.68 41.8828 894.781 28.3086 902.984 20.1055C911.383 11.707 924.859 7.50781 943.414 7.50781H1082.57C1103.08 7.50781 1120.86 8.77734 1135.89 11.3164C1150.93 13.8555 1164.41 18.7383 1176.32 25.9648C1186.48 32.0195 1195.46 39.7344 1203.28 49.1094C1211.09 58.2891 1217.05 68.543 1221.15 79.8711C1225.25 91.0039 1227.3 102.82 1227.3 115.32C1227.3 158.289 1205.82 189.734 1162.85 209.656C1219.29 227.625 1247.52 262.586 1247.52 314.539C1247.52 338.562 1241.36 360.242 1229.06 379.578C1216.75 398.719 1200.15 412.879 1179.25 422.059C1166.17 427.527 1151.13 431.434 1134.14 433.777C1117.14 435.926 1097.32 437 1074.66 437ZM1068.22 246.277H977.691V371.668H1071.15C1129.94 371.668 1159.33 350.477 1159.33 308.094C1159.33 286.414 1151.71 270.691 1136.48 260.926C1121.25 251.16 1098.49 246.277 1068.22 246.277ZM977.691 72.8398V183.875H1057.38C1079.06 183.875 1095.76 181.824 1107.48 177.723C1119.39 173.621 1128.47 165.809 1134.72 154.285C1139.61 146.082 1142.05 136.902 1142.05 126.746C1142.05 105.066 1134.33 90.7109 1118.9 83.6797C1103.47 76.4531 1079.94 72.8398 1048.3 72.8398H977.691ZM1440 253.309H1409.53V391.297C1409.53 409.461 1405.52 422.84 1397.52 431.434C1389.51 440.027 1379.06 444.324 1366.17 444.324C1352.3 444.324 1341.56 439.832 1333.94 430.848C1326.32 421.863 1322.52 408.68 1322.52 391.297V60.8281C1322.52 42.0781 1326.71 28.5039 1335.11 20.1055C1343.51 11.707 1357.09 7.50781 1375.84 7.50781H1517.34C1536.87 7.50781 1553.57 8.38672 1567.44 10.1445C1581.3 11.707 1593.8 15.0273 1604.94 20.1055C1618.41 25.7695 1630.33 33.875 1640.68 44.4219C1651.03 54.9688 1658.84 67.2734 1664.12 81.3359C1669.59 95.2031 1672.32 109.949 1672.32 125.574C1672.32 157.605 1663.24 183.191 1645.07 202.332C1627.11 221.473 1599.76 235.047 1563.04 243.055C1578.47 251.258 1593.22 263.367 1607.28 279.383C1621.34 295.398 1633.84 312.488 1644.78 330.652C1655.91 348.621 1664.51 364.93 1670.56 379.578C1676.81 394.031 1679.94 403.992 1679.94 409.461C1679.94 415.125 1678.08 420.789 1674.37 426.453C1670.86 431.922 1665.97 436.219 1659.72 439.344C1653.47 442.664 1646.25 444.324 1638.04 444.324C1628.28 444.324 1620.07 441.98 1613.43 437.293C1606.79 432.801 1601.03 427.039 1596.15 420.008C1591.46 412.977 1585.02 402.625 1576.81 388.953L1541.95 330.945C1529.45 309.656 1518.22 293.445 1508.26 282.312C1498.49 271.18 1488.53 263.562 1478.38 259.461C1468.22 255.359 1455.43 253.309 1440 253.309ZM1489.8 72.8398H1409.53V190.906H1487.46C1508.36 190.906 1525.93 189.148 1540.19 185.633C1554.45 181.922 1565.29 175.77 1572.71 167.176C1580.33 158.387 1584.14 146.375 1584.14 131.141C1584.14 119.227 1581.11 108.777 1575.05 99.793C1569 90.6133 1560.6 83.7773 1549.86 79.2852C1539.7 74.9883 1519.68 72.8398 1489.8 72.8398ZM2037.95 74.5977H1841.95V180.066H2022.42C2035.7 180.066 2045.56 183.094 2052.01 189.148C2058.65 195.008 2061.97 202.82 2061.97 212.586C2061.97 222.352 2058.75 230.359 2052.3 236.609C2045.86 242.664 2035.89 245.691 2022.42 245.691H1841.95V367.859H2044.68C2058.36 367.859 2068.61 371.082 2075.45 377.527C2082.48 383.777 2085.99 392.176 2085.99 402.723C2085.99 412.879 2082.48 421.18 2075.45 427.625C2068.61 433.875 2058.36 437 2044.68 437H1808.26C1789.31 437 1775.64 432.801 1767.24 424.402C1759.04 416.004 1754.94 402.43 1754.94 383.68V60.8281C1754.94 48.3281 1756.79 38.1719 1760.5 30.3594C1764.21 22.3516 1769.98 16.5898 1777.79 13.0742C1785.8 9.36328 1795.95 7.50781 1808.26 7.50781H2037.95C2051.81 7.50781 2062.07 10.6328 2068.71 16.8828C2075.54 22.9375 2078.96 30.9453 2078.96 40.9062C2078.96 51.0625 2075.54 59.2656 2068.71 65.5156C2062.07 71.5703 2051.81 74.5977 2037.95 74.5977Z" fill="white"/>
</svg>
