<svg width="29" height="29" viewBox="0 0 29 29" fill="none" xmlns="http://www.w3.org/2000/svg">
<g clip-path="url(#clip0_315_100)">
<path d="M10.1028 0.954488C7.20529 1.95967 4.70645 3.86755 2.97336 6.39788C1.24026 8.92821 0.364262 11.9476 0.474034 15.0126C0.583806 18.0776 1.67356 21.0266 3.58323 23.4265C5.4929 25.8263 8.12182 27.5506 11.0839 28.3459C13.4852 28.9655 16.0012 28.9927 18.4154 28.4252C20.6025 27.9339 22.6245 26.8831 24.2834 25.3757C26.01 23.7588 27.2632 21.7019 27.9084 19.4261C28.6096 16.9513 28.7344 14.3487 28.2732 11.8182H14.7882V17.412H22.5978C22.4417 18.3042 22.1072 19.1557 21.6144 19.9156C21.1215 20.6755 20.4804 21.3281 19.7295 21.8345C18.7758 22.4653 17.7008 22.8898 16.5735 23.0806C15.4428 23.2908 14.283 23.2908 13.1524 23.0806C12.0064 22.8436 10.9223 22.3707 9.96917 21.6918C8.43795 20.6078 7.2882 19.068 6.68402 17.2919C6.06961 15.4826 6.06961 13.521 6.68402 11.7117C7.11409 10.4434 7.82506 9.28867 8.76386 8.33363C9.8382 7.22063 11.1983 6.42506 12.6951 6.03419C14.1918 5.64332 15.7673 5.67227 17.2486 6.11785C18.4058 6.47308 19.4641 7.09374 20.3389 7.93035C21.2195 7.05431 22.0986 6.176 22.9761 5.29543C23.4293 4.82191 23.9232 4.37105 24.3695 3.88621C23.034 2.64346 21.4665 1.67644 19.7567 1.04058C16.643 -0.0899885 13.2362 -0.120372 10.1028 0.954488Z" fill="white"/>
<path d="M10.1021 0.953636C13.2352 -0.121954 16.642 -0.092371 19.7559 1.03746C21.4661 1.67765 23.0329 2.64932 24.3665 3.89668C23.9134 4.38153 23.4353 4.83465 22.9731 5.3059C22.0941 6.18345 21.2158 7.05798 20.3382 7.9295C19.4633 7.09289 18.4051 6.47223 17.2479 6.117C15.767 5.66985 14.1916 5.63924 12.6945 6.02851C11.1974 6.41777 9.83638 7.21188 8.76086 8.32371C7.82206 9.27876 7.11109 10.4335 6.68102 11.7018L1.98438 8.06543C3.66549 4.7317 6.57623 2.18166 10.1021 0.953636Z" fill="#E33629"/>
<path d="M0.737962 11.6688C0.990401 10.4177 1.4095 9.20608 1.98406 8.06641L6.6807 11.7118C6.06629 13.5211 6.06629 15.4827 6.6807 17.292C5.1159 18.5004 3.55036 19.7147 1.98406 20.9352C0.545725 18.0721 0.10706 14.81 0.737962 11.6688Z" fill="#F8BD00"/>
<path d="M14.7881 11.8145H28.2731C28.7344 14.345 28.6096 16.9476 27.9084 19.4224C27.2632 21.6982 26.0099 23.7551 24.2834 25.372C22.7676 24.1893 21.2451 23.0157 19.7294 21.833C20.4809 21.3262 21.1223 20.6728 21.6151 19.9121C22.108 19.1514 22.4422 18.299 22.5977 17.406H14.7881C14.7859 15.5437 14.7881 13.6791 14.7881 11.8145Z" fill="#587DBD"/>
<path d="M1.98242 20.9341C3.54872 19.7258 5.11427 18.5114 6.67906 17.291C7.28445 19.0677 8.43584 20.6077 9.96875 21.6909C10.9249 22.3666 12.0113 22.8357 13.1588 23.0684C14.2894 23.2786 15.4492 23.2786 16.5798 23.0684C17.7072 22.8775 18.7822 22.4531 19.7359 21.8223C21.2516 23.0049 22.7741 24.1785 24.2898 25.3612C22.6311 26.8695 20.6091 27.9211 18.4218 28.413C16.0076 28.9805 13.4916 28.9533 11.0902 28.3337C9.19097 27.8266 7.41692 26.9326 5.8793 25.7078C4.25181 24.4157 2.92255 22.7874 1.98242 20.9341Z" fill="#319F43"/>
</g>
<defs>
<clipPath id="clip0_315_100">
<rect width="29" height="29" fill="white"/>
</clipPath>
</defs>
</svg>
