<svg width="31" height="31" viewBox="0 0 31 31" fill="none" xmlns="http://www.w3.org/2000/svg">
<path d="M12.916 15.4993C12.916 16.1845 13.1882 16.8416 13.6727 17.326C14.1571 17.8105 14.8142 18.0827 15.4993 18.0827C16.1845 18.0827 16.8416 17.8105 17.326 17.326C17.8105 16.8416 18.0827 16.1845 18.0827 15.4993C18.0827 14.8142 17.8105 14.1571 17.326 13.6727C16.8416 13.1882 16.1845 12.916 15.4993 12.916C14.8142 12.916 14.1571 13.1882 13.6727 13.6727C13.1882 14.1571 12.916 14.8142 12.916 15.4993Z" stroke="#2F735E" stroke-width="2" stroke-linecap="round" stroke-linejoin="round"/>
<path d="M27.125 15.5C24.025 20.6667 20.15 23.25 15.5 23.25C10.85 23.25 6.975 20.6667 3.875 15.5C6.975 10.3333 10.85 7.75 15.5 7.75C20.15 7.75 24.025 10.3333 27.125 15.5Z" stroke="#2F735E" stroke-width="2" stroke-linecap="round" stroke-linejoin="round"/>
<line x1="8.18544" y1="3.93338" x2="26.5488" y2="22.9135" stroke="white" stroke-width="5" stroke-linecap="round"/>
<line x1="4.51363" y1="3.89835" x2="24.963" y2="25.0345" stroke="#2F735E" stroke-width="2" stroke-linecap="round"/>
</svg>
