<svg width="24" height="24" viewBox="0 0 24 24" fill="none" xmlns="http://www.w3.org/2000/svg">
<path d="M8.47833 8.47716C8.66586 8.28969 8.92017 8.18438 9.18533 8.18438C9.4505 8.18438 9.70481 8.28969 9.89233 8.47716L12.0463 10.6302L14.1993 8.47716C14.2916 8.38165 14.4019 8.30547 14.5239 8.25306C14.6459 8.20065 14.7772 8.17307 14.9099 8.17191C15.0427 8.17076 15.1744 8.19606 15.2973 8.24634C15.4202 8.29662 15.5318 8.37088 15.6257 8.46477C15.7196 8.55866 15.7939 8.67031 15.8442 8.79321C15.8944 8.91611 15.9197 9.04779 15.9186 9.18056C15.9174 9.31334 15.8898 9.44456 15.8374 9.56657C15.785 9.68857 15.7088 9.79892 15.6133 9.89116L13.4603 12.0452L15.6133 14.1982C15.7955 14.3868 15.8963 14.6394 15.894 14.9016C15.8917 15.1638 15.7866 15.4146 15.6012 15.6C15.4157 15.7854 15.1649 15.8906 14.9027 15.8928C14.6405 15.8951 14.3879 15.7943 14.1993 15.6122L12.0463 13.4592L9.89233 15.6122C9.70301 15.79 9.45194 15.8871 9.19226 15.8831C8.93257 15.879 8.68464 15.7741 8.50093 15.5906C8.31722 15.407 8.21213 15.1591 8.20792 14.8994C8.2037 14.6398 8.30068 14.3886 8.47833 14.1992L10.6313 12.0462L8.47833 9.89216C8.29086 9.70464 8.18555 9.45033 8.18555 9.18516C8.18555 8.92 8.29086 8.66569 8.47833 8.47816" fill="#DE3535"/>
<path fill-rule="evenodd" clip-rule="evenodd" d="M12 2C6.477 2 2 6.477 2 12C2 17.523 6.477 22 12 22C17.523 22 22 17.523 22 12C22 6.477 17.523 2 12 2ZM4 12C4 9.87827 4.84285 7.84344 6.34315 6.34315C7.84344 4.84285 9.87827 4 12 4C14.1217 4 16.1566 4.84285 17.6569 6.34315C19.1571 7.84344 20 9.87827 20 12C20 14.1217 19.1571 16.1566 17.6569 17.6569C16.1566 19.1571 14.1217 20 12 20C9.87827 20 7.84344 19.1571 6.34315 17.6569C4.84285 16.1566 4 14.1217 4 12Z" fill="#DE3535"/>
</svg>
