<svg width="49" height="49" viewBox="0 0 49 49" fill="none" xmlns="http://www.w3.org/2000/svg">
<g filter="url(#filter0_d_519_4650)">
<rect x="2" y="1" width="45" height="45" rx="5" fill="#2F735E"/>
<path d="M24.5 13.875H38.25V16.625H24.5M24.5 33.125V30.375H38.25V33.125M24.5 22.125H38.25V24.875H24.5M20.375 24.875V27.625L15.7962 33.125H20.375V35.875H12.125V33.125L16.7037 27.625H12.125V24.875M17.625 11.125H14.875C13.3625 11.125 12.125 12.3625 12.125 13.875V22.125H14.875V19.375H17.625V22.125H20.375V13.875C20.375 13.1457 20.0853 12.4462 19.5695 11.9305C19.0538 11.4147 18.3543 11.125 17.625 11.125ZM17.625 16.625H14.875V13.875H17.625V16.625Z" fill="white"/>
</g>
<defs>
<filter id="filter0_d_519_4650" x="0" y="0" width="49" height="49" filterUnits="userSpaceOnUse" color-interpolation-filters="sRGB">
<feFlood flood-opacity="0" result="BackgroundImageFix"/>
<feColorMatrix in="SourceAlpha" type="matrix" values="0 0 0 0 0 0 0 0 0 0 0 0 0 0 0 0 0 0 127 0" result="hardAlpha"/>
<feOffset dy="1"/>
<feGaussianBlur stdDeviation="1"/>
<feComposite in2="hardAlpha" operator="out"/>
<feColorMatrix type="matrix" values="0 0 0 0 0 0 0 0 0 0 0 0 0 0 0 0 0 0 0.25 0"/>
<feBlend mode="normal" in2="BackgroundImageFix" result="effect1_dropShadow_519_4650"/>
<feBlend mode="normal" in="SourceGraphic" in2="effect1_dropShadow_519_4650" result="shape"/>
</filter>
</defs>
</svg>
