<svg width="49" height="49" viewBox="0 0 49 49" fill="none" xmlns="http://www.w3.org/2000/svg">
<g filter="url(#filter0_d_519_4653)">
<rect x="2" y="1" width="45" height="45" rx="5" fill="#2F735E"/>
<path d="M13.25 23.5C13.25 19.2576 13.25 17.1359 14.5685 15.8185C15.887 14.5011 18.0076 14.5 22.25 14.5H26.75C30.9924 14.5 33.1141 14.5 34.4315 15.8185C35.7489 17.137 35.75 19.2576 35.75 23.5C35.75 27.7424 35.75 29.8641 34.4315 31.1815C33.113 32.4989 30.9924 32.5 26.75 32.5H22.25C18.0076 32.5 15.8859 32.5 14.5685 31.1815C13.2511 29.863 13.25 27.7424 13.25 23.5Z" stroke="white" stroke-width="2"/>
<path d="M22.25 28H17.75M26.75 28H25.0625M13.25 21.25H35.75" stroke="white" stroke-width="2" stroke-linecap="round"/>
</g>
<defs>
<filter id="filter0_d_519_4653" x="0" y="0" width="49" height="49" filterUnits="userSpaceOnUse" color-interpolation-filters="sRGB">
<feFlood flood-opacity="0" result="BackgroundImageFix"/>
<feColorMatrix in="SourceAlpha" type="matrix" values="0 0 0 0 0 0 0 0 0 0 0 0 0 0 0 0 0 0 127 0" result="hardAlpha"/>
<feOffset dy="1"/>
<feGaussianBlur stdDeviation="1"/>
<feComposite in2="hardAlpha" operator="out"/>
<feColorMatrix type="matrix" values="0 0 0 0 0 0 0 0 0 0 0 0 0 0 0 0 0 0 0.25 0"/>
<feBlend mode="normal" in2="BackgroundImageFix" result="effect1_dropShadow_519_4653"/>
<feBlend mode="normal" in="SourceGraphic" in2="effect1_dropShadow_519_4653" result="shape"/>
</filter>
</defs>
</svg>
