<svg width="214" height="123" viewBox="0 0 214 123" fill="none" xmlns="http://www.w3.org/2000/svg">
<g clip-path="url(#clip0_519_4507)">
<rect x="69" width="75" height="88" fill="#C2C2C2"/>
<circle cx="79.5" cy="23.5" r="4.5" fill="white"/>
<rect x="89" y="19" width="49" height="3" fill="white"/>
<rect x="89" y="25" width="31" height="3" fill="white"/>
<circle cx="79.5" cy="44.5" r="4.5" fill="white"/>
<rect x="89" y="40" width="49" height="3" fill="white"/>
<rect x="89" y="46" width="31" height="3" fill="white"/>
<circle cx="79.5" cy="65.5" r="4.5" fill="white"/>
<rect x="89" y="61" width="49" height="3" fill="white"/>
<rect x="89" y="67" width="31" height="3" fill="white"/>
</g>
<path d="M1.14258 120V109.263H2.6001L8.23975 117.693V109.263H9.60205V120H8.14453L2.50488 111.562V120H1.14258ZM16.9043 119.041C16.416 119.456 15.9448 119.749 15.4907 119.919C15.0415 120.09 14.5581 120.176 14.0405 120.176C13.186 120.176 12.5293 119.968 12.0703 119.553C11.6113 119.133 11.3818 118.599 11.3818 117.949C11.3818 117.568 11.4673 117.222 11.6382 116.909C11.814 116.592 12.041 116.338 12.3193 116.147C12.6025 115.957 12.9199 115.813 13.2715 115.715C13.5303 115.647 13.9209 115.581 14.4434 115.518C15.5078 115.391 16.2915 115.239 16.7944 115.063C16.7993 114.883 16.8018 114.768 16.8018 114.719C16.8018 114.182 16.6772 113.804 16.4282 113.584C16.0913 113.286 15.5908 113.137 14.9268 113.137C14.3066 113.137 13.8477 113.247 13.5498 113.467C13.2568 113.682 13.0396 114.065 12.8979 114.617L11.6089 114.441C11.7261 113.889 11.9189 113.445 12.1875 113.108C12.4561 112.766 12.8442 112.505 13.3521 112.324C13.8599 112.139 14.4482 112.046 15.1172 112.046C15.7812 112.046 16.3208 112.124 16.7358 112.28C17.1509 112.437 17.4561 112.634 17.6514 112.874C17.8467 113.108 17.9834 113.406 18.0615 113.767C18.1055 113.992 18.1274 114.397 18.1274 114.983V116.741C18.1274 117.966 18.1543 118.743 18.208 119.07C18.2666 119.392 18.3789 119.702 18.5449 120H17.168C17.0312 119.727 16.9434 119.407 16.9043 119.041ZM16.7944 116.096C16.3159 116.292 15.5981 116.458 14.6411 116.594C14.0991 116.672 13.7158 116.76 13.4912 116.858C13.2666 116.956 13.0933 117.1 12.9712 117.29C12.8491 117.476 12.7881 117.683 12.7881 117.913C12.7881 118.264 12.9199 118.557 13.1836 118.792C13.4521 119.026 13.8428 119.143 14.3555 119.143C14.8633 119.143 15.3149 119.033 15.7104 118.813C16.106 118.589 16.3965 118.284 16.582 117.898C16.7236 117.6 16.7944 117.161 16.7944 116.58V116.096ZM12.5171 111.072C12.5122 110.564 12.6514 110.159 12.9346 109.856C13.2129 109.553 13.5693 109.402 14.0039 109.402C14.3066 109.402 14.7192 109.534 15.2417 109.797C15.5298 109.944 15.7593 110.017 15.9302 110.017C16.0864 110.017 16.2061 109.976 16.2891 109.893C16.3721 109.805 16.4307 109.634 16.4648 109.38H17.417C17.4023 109.937 17.2607 110.354 16.9922 110.632C16.7285 110.911 16.3916 111.05 15.9814 111.05C15.6738 111.05 15.2686 110.913 14.7656 110.64C14.4385 110.464 14.1992 110.376 14.0479 110.376C13.8818 110.376 13.7476 110.435 13.645 110.552C13.5376 110.669 13.4863 110.842 13.4912 111.072H12.5171ZM19.6875 116.111C19.6875 114.67 20.0879 113.604 20.8887 112.91C21.5576 112.334 22.373 112.046 23.335 112.046C24.4043 112.046 25.2783 112.397 25.957 113.101C26.6357 113.799 26.9751 114.766 26.9751 116.001C26.9751 117.002 26.8237 117.791 26.521 118.367C26.2231 118.938 25.7861 119.382 25.21 119.7C24.6387 120.017 24.0137 120.176 23.335 120.176C22.2461 120.176 21.3647 119.827 20.6909 119.128C20.022 118.43 19.6875 117.424 19.6875 116.111ZM21.0425 116.111C21.0425 117.107 21.2598 117.854 21.6943 118.352C22.1289 118.845 22.6758 119.092 23.335 119.092C23.9893 119.092 24.5337 118.843 24.9683 118.345C25.4028 117.847 25.6201 117.087 25.6201 116.067C25.6201 115.105 25.4004 114.377 24.9609 113.884C24.5264 113.386 23.9844 113.137 23.335 113.137C22.6758 113.137 22.1289 113.384 21.6943 113.877C21.2598 114.37 21.0425 115.115 21.0425 116.111ZM32.7026 120V109.263H34.021V113.115C34.6362 112.402 35.4126 112.046 36.3501 112.046C36.9263 112.046 37.4268 112.161 37.8516 112.39C38.2764 112.615 38.5791 112.927 38.7598 113.328C38.9453 113.728 39.0381 114.309 39.0381 115.071V120H37.7197V115.071C37.7197 114.412 37.5757 113.933 37.2876 113.635C37.0044 113.333 36.6016 113.181 36.0791 113.181C35.6885 113.181 35.3198 113.284 34.9731 113.489C34.6313 113.689 34.3872 113.962 34.2407 114.309C34.0942 114.656 34.021 115.134 34.021 115.745V120H32.7026ZM46.1279 119.041C45.6396 119.456 45.1685 119.749 44.7144 119.919C44.2651 120.09 43.7817 120.176 43.2642 120.176C42.4097 120.176 41.7529 119.968 41.2939 119.553C40.835 119.133 40.6055 118.599 40.6055 117.949C40.6055 117.568 40.6909 117.222 40.8618 116.909C41.0376 116.592 41.2646 116.338 41.543 116.147C41.8262 115.957 42.1436 115.813 42.4951 115.715C42.7539 115.647 43.1445 115.581 43.667 115.518C44.7314 115.391 45.5151 115.239 46.0181 115.063C46.0229 114.883 46.0254 114.768 46.0254 114.719C46.0254 114.182 45.9009 113.804 45.6519 113.584C45.3149 113.286 44.8145 113.137 44.1504 113.137C43.5303 113.137 43.0713 113.247 42.7734 113.467C42.4805 113.682 42.2632 114.065 42.1216 114.617L40.8325 114.441C40.9497 113.889 41.1426 113.445 41.4111 113.108C41.6797 112.766 42.0679 112.505 42.5757 112.324C43.0835 112.139 43.6719 112.046 44.3408 112.046C45.0049 112.046 45.5444 112.124 45.9595 112.28C46.3745 112.437 46.6797 112.634 46.875 112.874C47.0703 113.108 47.207 113.406 47.2852 113.767C47.3291 113.992 47.3511 114.397 47.3511 114.983V116.741C47.3511 117.966 47.3779 118.743 47.4316 119.07C47.4902 119.392 47.6025 119.702 47.7686 120H46.3916C46.2549 119.727 46.167 119.407 46.1279 119.041ZM46.0181 116.096C45.5396 116.292 44.8218 116.458 43.8647 116.594C43.3228 116.672 42.9395 116.76 42.7148 116.858C42.4902 116.956 42.3169 117.1 42.1948 117.29C42.0728 117.476 42.0117 117.683 42.0117 117.913C42.0117 118.264 42.1436 118.557 42.4072 118.792C42.6758 119.026 43.0664 119.143 43.5791 119.143C44.0869 119.143 44.5386 119.033 44.9341 118.813C45.3296 118.589 45.6201 118.284 45.8057 117.898C45.9473 117.6 46.0181 117.161 46.0181 116.58V116.096ZM43.4546 111.255L44.4287 109.204H46.1572L44.5459 111.255H43.4546ZM58.6523 117.151L59.9487 117.319C59.8071 118.213 59.4434 118.914 58.8574 119.421C58.2764 119.924 57.561 120.176 56.7114 120.176C55.647 120.176 54.79 119.829 54.1406 119.136C53.4961 118.438 53.1738 117.439 53.1738 116.14C53.1738 115.3 53.313 114.565 53.5913 113.936C53.8696 113.306 54.292 112.834 54.8584 112.522C55.4297 112.205 56.0498 112.046 56.7188 112.046C57.5635 112.046 58.2544 112.261 58.7915 112.69C59.3286 113.115 59.6729 113.721 59.8242 114.507L58.5425 114.705C58.4204 114.182 58.2031 113.789 57.8906 113.525C57.583 113.262 57.2095 113.13 56.77 113.13C56.106 113.13 55.5664 113.369 55.1514 113.848C54.7363 114.321 54.5288 115.073 54.5288 116.104C54.5288 117.148 54.729 117.908 55.1294 118.381C55.5298 118.855 56.0522 119.092 56.6968 119.092C57.2144 119.092 57.6465 118.933 57.9932 118.616C58.3398 118.298 58.5596 117.81 58.6523 117.151ZM66.1743 120V118.857C65.5688 119.736 64.7461 120.176 63.7061 120.176C63.2471 120.176 62.8174 120.088 62.417 119.912C62.0215 119.736 61.7261 119.517 61.5308 119.253C61.3403 118.984 61.2061 118.657 61.1279 118.271C61.0742 118.013 61.0474 117.603 61.0474 117.041V112.222H62.3657V116.536C62.3657 117.224 62.3926 117.688 62.4463 117.927C62.5293 118.274 62.7051 118.547 62.9736 118.748C63.2422 118.943 63.5742 119.041 63.9697 119.041C64.3652 119.041 64.7363 118.94 65.083 118.74C65.4297 118.535 65.6738 118.259 65.8154 117.913C65.9619 117.561 66.0352 117.053 66.0352 116.389V112.222H67.3535V120H66.1743ZM69.4116 120V112.222H70.5981V113.401C70.9009 112.849 71.1792 112.485 71.4331 112.31C71.6919 112.134 71.9751 112.046 72.2827 112.046C72.7271 112.046 73.1787 112.188 73.6377 112.471L73.1836 113.694C72.8613 113.503 72.5391 113.408 72.2168 113.408C71.9287 113.408 71.6699 113.496 71.4404 113.672C71.2109 113.843 71.0474 114.082 70.9497 114.39C70.8032 114.858 70.73 115.371 70.73 115.928V120H69.4116ZM73.894 117.678L75.1978 117.473C75.271 117.996 75.4736 118.396 75.8057 118.674C76.1426 118.953 76.6113 119.092 77.2119 119.092C77.8174 119.092 78.2666 118.97 78.5596 118.726C78.8525 118.477 78.999 118.186 78.999 117.854C78.999 117.556 78.8696 117.322 78.6108 117.151C78.4302 117.034 77.981 116.885 77.2632 116.704C76.2964 116.46 75.625 116.25 75.249 116.074C74.8779 115.894 74.5947 115.647 74.3994 115.334C74.209 115.017 74.1138 114.668 74.1138 114.287C74.1138 113.94 74.1919 113.621 74.3481 113.328C74.5093 113.03 74.7266 112.783 75 112.588C75.2051 112.437 75.4834 112.31 75.835 112.207C76.1914 112.1 76.5723 112.046 76.9775 112.046C77.5879 112.046 78.1226 112.134 78.5815 112.31C79.0454 112.485 79.3872 112.725 79.6069 113.027C79.8267 113.325 79.978 113.726 80.061 114.229L78.772 114.404C78.7134 114.004 78.5425 113.691 78.2593 113.467C77.981 113.242 77.5854 113.13 77.0728 113.13C76.4673 113.13 76.0352 113.23 75.7764 113.43C75.5176 113.63 75.3882 113.865 75.3882 114.133C75.3882 114.304 75.4419 114.458 75.5493 114.595C75.6567 114.736 75.8252 114.854 76.0547 114.946C76.1865 114.995 76.5747 115.107 77.2192 115.283C78.1519 115.532 78.8013 115.737 79.1675 115.898C79.5386 116.055 79.8291 116.284 80.0391 116.587C80.249 116.89 80.354 117.266 80.354 117.715C80.354 118.154 80.2246 118.569 79.9658 118.96C79.7119 119.346 79.3433 119.646 78.8599 119.861C78.3765 120.071 77.8296 120.176 77.2192 120.176C76.2085 120.176 75.437 119.966 74.9048 119.546C74.3774 119.126 74.0405 118.503 73.894 117.678ZM81.4307 116.111C81.4307 114.67 81.8311 113.604 82.6318 112.91C83.3008 112.334 84.1162 112.046 85.0781 112.046C86.1475 112.046 87.0215 112.397 87.7002 113.101C88.3789 113.799 88.7183 114.766 88.7183 116.001C88.7183 117.002 88.5669 117.791 88.2642 118.367C87.9663 118.938 87.5293 119.382 86.9531 119.7C86.3818 120.017 85.7568 120.176 85.0781 120.176C83.9893 120.176 83.1079 119.827 82.4341 119.128C81.7651 118.43 81.4307 117.424 81.4307 116.111ZM82.7856 116.111C82.7856 117.107 83.0029 117.854 83.4375 118.352C83.8721 118.845 84.4189 119.092 85.0781 119.092C85.7324 119.092 86.2769 118.843 86.7114 118.345C87.146 117.847 87.3633 117.087 87.3633 116.067C87.3633 115.105 87.1436 114.377 86.7041 113.884C86.2695 113.386 85.7275 113.137 85.0781 113.137C84.4189 113.137 83.8721 113.384 83.4375 113.877C83.0029 114.37 82.7856 115.115 82.7856 116.111ZM89.7437 117.678L91.0474 117.473C91.1206 117.996 91.3232 118.396 91.6553 118.674C91.9922 118.953 92.4609 119.092 93.0615 119.092C93.667 119.092 94.1162 118.97 94.4092 118.726C94.7021 118.477 94.8486 118.186 94.8486 117.854C94.8486 117.556 94.7192 117.322 94.4604 117.151C94.2798 117.034 93.8306 116.885 93.1128 116.704C92.146 116.46 91.4746 116.25 91.0986 116.074C90.7275 115.894 90.4443 115.647 90.249 115.334C90.0586 115.017 89.9634 114.668 89.9634 114.287C89.9634 113.94 90.0415 113.621 90.1978 113.328C90.3589 113.03 90.5762 112.783 90.8496 112.588C91.0547 112.437 91.333 112.31 91.6846 112.207C92.041 112.1 92.4219 112.046 92.8271 112.046C93.4375 112.046 93.9722 112.134 94.4312 112.31C94.895 112.485 95.2368 112.725 95.4565 113.027C95.6763 113.325 95.8276 113.726 95.9106 114.229L94.6216 114.404C94.563 114.004 94.3921 113.691 94.1089 113.467C93.8306 113.242 93.4351 113.13 92.9224 113.13C92.3169 113.13 91.8848 113.23 91.626 113.43C91.3672 113.63 91.2378 113.865 91.2378 114.133C91.2378 114.304 91.2915 114.458 91.3989 114.595C91.5063 114.736 91.6748 114.854 91.9043 114.946C92.0361 114.995 92.4243 115.107 93.0688 115.283C94.0015 115.532 94.6509 115.737 95.0171 115.898C95.3882 116.055 95.6787 116.284 95.8887 116.587C96.0986 116.89 96.2036 117.266 96.2036 117.715C96.2036 118.154 96.0742 118.569 95.8154 118.96C95.5615 119.346 95.1929 119.646 94.7095 119.861C94.2261 120.071 93.6792 120.176 93.0688 120.176C92.0581 120.176 91.2866 119.966 90.7544 119.546C90.2271 119.126 89.8901 118.503 89.7437 117.678ZM107.271 117.495L108.633 117.664C108.418 118.459 108.02 119.077 107.439 119.517C106.858 119.956 106.116 120.176 105.212 120.176C104.075 120.176 103.171 119.827 102.502 119.128C101.838 118.425 101.506 117.441 101.506 116.177C101.506 114.868 101.843 113.853 102.517 113.13C103.191 112.407 104.065 112.046 105.139 112.046C106.179 112.046 107.029 112.4 107.688 113.108C108.347 113.816 108.677 114.812 108.677 116.096C108.677 116.174 108.674 116.292 108.669 116.448H102.869C102.917 117.302 103.159 117.957 103.594 118.411C104.028 118.865 104.57 119.092 105.22 119.092C105.703 119.092 106.116 118.965 106.458 118.711C106.799 118.457 107.07 118.052 107.271 117.495ZM102.942 115.364H107.285C107.227 114.709 107.061 114.219 106.787 113.892C106.367 113.384 105.823 113.13 105.154 113.13C104.548 113.13 104.038 113.333 103.623 113.738C103.213 114.143 102.986 114.685 102.942 115.364ZM110.295 120V112.222H111.475V113.313C111.719 112.932 112.043 112.627 112.449 112.397C112.854 112.163 113.315 112.046 113.833 112.046C114.409 112.046 114.88 112.166 115.247 112.405C115.618 112.644 115.879 112.979 116.03 113.408C116.646 112.5 117.446 112.046 118.433 112.046C119.204 112.046 119.797 112.261 120.212 112.69C120.627 113.115 120.835 113.772 120.835 114.661V120H119.524V115.1C119.524 114.573 119.48 114.194 119.392 113.965C119.309 113.73 119.155 113.542 118.931 113.401C118.706 113.259 118.442 113.188 118.14 113.188C117.593 113.188 117.139 113.372 116.777 113.738C116.416 114.099 116.235 114.68 116.235 115.481V120H114.917V114.946C114.917 114.36 114.81 113.921 114.595 113.628C114.38 113.335 114.028 113.188 113.54 113.188C113.169 113.188 112.825 113.286 112.507 113.481C112.195 113.677 111.968 113.962 111.826 114.338C111.685 114.714 111.614 115.256 111.614 115.964V120H110.295ZM132.041 119.041C131.553 119.456 131.082 119.749 130.627 119.919C130.178 120.09 129.695 120.176 129.177 120.176C128.323 120.176 127.666 119.968 127.207 119.553C126.748 119.133 126.519 118.599 126.519 117.949C126.519 117.568 126.604 117.222 126.775 116.909C126.951 116.592 127.178 116.338 127.456 116.147C127.739 115.957 128.057 115.813 128.408 115.715C128.667 115.647 129.058 115.581 129.58 115.518C130.645 115.391 131.428 115.239 131.931 115.063C131.936 114.883 131.938 114.768 131.938 114.719C131.938 114.182 131.814 113.804 131.565 113.584C131.228 113.286 130.728 113.137 130.063 113.137C129.443 113.137 128.984 113.247 128.687 113.467C128.394 113.682 128.176 114.065 128.035 114.617L126.746 114.441C126.863 113.889 127.056 113.445 127.324 113.108C127.593 112.766 127.981 112.505 128.489 112.324C128.997 112.139 129.585 112.046 130.254 112.046C130.918 112.046 131.458 112.124 131.873 112.28C132.288 112.437 132.593 112.634 132.788 112.874C132.983 113.108 133.12 113.406 133.198 113.767C133.242 113.992 133.264 114.397 133.264 114.983V116.741C133.264 117.966 133.291 118.743 133.345 119.07C133.403 119.392 133.516 119.702 133.682 120H132.305C132.168 119.727 132.08 119.407 132.041 119.041ZM131.931 116.096C131.453 116.292 130.735 116.458 129.778 116.594C129.236 116.672 128.853 116.76 128.628 116.858C128.403 116.956 128.23 117.1 128.108 117.29C127.986 117.476 127.925 117.683 127.925 117.913C127.925 118.264 128.057 118.557 128.32 118.792C128.589 119.026 128.979 119.143 129.492 119.143C130 119.143 130.452 119.033 130.847 118.813C131.243 118.589 131.533 118.284 131.719 117.898C131.86 117.6 131.931 117.161 131.931 116.58V116.096ZM135.315 120V112.222H136.501V113.328C137.073 112.473 137.898 112.046 138.977 112.046C139.446 112.046 139.875 112.131 140.266 112.302C140.662 112.468 140.957 112.688 141.152 112.961C141.348 113.235 141.484 113.56 141.562 113.936C141.611 114.18 141.636 114.607 141.636 115.217V120H140.317V115.269C140.317 114.731 140.266 114.331 140.164 114.067C140.061 113.799 139.878 113.586 139.614 113.43C139.355 113.269 139.05 113.188 138.699 113.188C138.137 113.188 137.651 113.367 137.241 113.723C136.836 114.08 136.633 114.756 136.633 115.752V120H135.315ZM148.711 120V119.019C148.218 119.79 147.493 120.176 146.536 120.176C145.916 120.176 145.344 120.005 144.822 119.663C144.304 119.321 143.901 118.845 143.613 118.235C143.33 117.62 143.188 116.914 143.188 116.118C143.188 115.342 143.318 114.639 143.577 114.009C143.835 113.374 144.224 112.888 144.741 112.551C145.259 112.214 145.837 112.046 146.477 112.046C146.946 112.046 147.363 112.146 147.729 112.346C148.096 112.542 148.394 112.798 148.623 113.115V109.263H149.934V120H148.711ZM144.543 116.118C144.543 117.114 144.753 117.859 145.173 118.352C145.593 118.845 146.089 119.092 146.66 119.092C147.236 119.092 147.725 118.857 148.125 118.389C148.53 117.915 148.733 117.195 148.733 116.228C148.733 115.164 148.528 114.382 148.118 113.884C147.708 113.386 147.202 113.137 146.602 113.137C146.016 113.137 145.525 113.376 145.129 113.855C144.739 114.333 144.543 115.088 144.543 116.118ZM157.09 119.041C156.602 119.456 156.13 119.749 155.676 119.919C155.227 120.09 154.744 120.176 154.226 120.176C153.372 120.176 152.715 119.968 152.256 119.553C151.797 119.133 151.567 118.599 151.567 117.949C151.567 117.568 151.653 117.222 151.824 116.909C152 116.592 152.227 116.338 152.505 116.147C152.788 115.957 153.105 115.813 153.457 115.715C153.716 115.647 154.106 115.581 154.629 115.518C155.693 115.391 156.477 115.239 156.98 115.063C156.985 114.883 156.987 114.768 156.987 114.719C156.987 114.182 156.863 113.804 156.614 113.584C156.277 113.286 155.776 113.137 155.112 113.137C154.492 113.137 154.033 113.247 153.735 113.467C153.442 113.682 153.225 114.065 153.083 114.617L151.794 114.441C151.912 113.889 152.104 113.445 152.373 113.108C152.642 112.766 153.03 112.505 153.538 112.324C154.045 112.139 154.634 112.046 155.303 112.046C155.967 112.046 156.506 112.124 156.921 112.28C157.336 112.437 157.642 112.634 157.837 112.874C158.032 113.108 158.169 113.406 158.247 113.767C158.291 113.992 158.313 114.397 158.313 114.983V116.741C158.313 117.966 158.34 118.743 158.394 119.07C158.452 119.392 158.564 119.702 158.73 120H157.354C157.217 119.727 157.129 119.407 157.09 119.041ZM156.98 116.096C156.501 116.292 155.784 116.458 154.827 116.594C154.285 116.672 153.901 116.76 153.677 116.858C153.452 116.956 153.279 117.1 153.157 117.29C153.035 117.476 152.974 117.683 152.974 117.913C152.974 118.264 153.105 118.557 153.369 118.792C153.638 119.026 154.028 119.143 154.541 119.143C155.049 119.143 155.5 119.033 155.896 118.813C156.292 118.589 156.582 118.284 156.768 117.898C156.909 117.6 156.98 117.161 156.98 116.58V116.096ZM160.364 120V112.222H161.543V113.313C161.787 112.932 162.112 112.627 162.517 112.397C162.922 112.163 163.384 112.046 163.901 112.046C164.478 112.046 164.949 112.166 165.315 112.405C165.686 112.644 165.947 112.979 166.099 113.408C166.714 112.5 167.515 112.046 168.501 112.046C169.272 112.046 169.866 112.261 170.281 112.69C170.696 113.115 170.903 113.772 170.903 114.661V120H169.592V115.1C169.592 114.573 169.548 114.194 169.46 113.965C169.377 113.73 169.224 113.542 168.999 113.401C168.774 113.259 168.511 113.188 168.208 113.188C167.661 113.188 167.207 113.372 166.846 113.738C166.484 114.099 166.304 114.68 166.304 115.481V120H164.985V114.946C164.985 114.36 164.878 113.921 164.663 113.628C164.448 113.335 164.097 113.188 163.608 113.188C163.237 113.188 162.893 113.286 162.576 113.481C162.263 113.677 162.036 113.962 161.895 114.338C161.753 114.714 161.682 115.256 161.682 115.964V120H160.364ZM178.184 117.495L179.546 117.664C179.331 118.459 178.933 119.077 178.352 119.517C177.771 119.956 177.029 120.176 176.125 120.176C174.988 120.176 174.084 119.827 173.416 119.128C172.751 118.425 172.419 117.441 172.419 116.177C172.419 114.868 172.756 113.853 173.43 113.13C174.104 112.407 174.978 112.046 176.052 112.046C177.092 112.046 177.942 112.4 178.601 113.108C179.26 113.816 179.59 114.812 179.59 116.096C179.59 116.174 179.587 116.292 179.583 116.448H173.782C173.831 117.302 174.072 117.957 174.507 118.411C174.941 118.865 175.483 119.092 176.133 119.092C176.616 119.092 177.029 118.965 177.371 118.711C177.712 118.457 177.983 118.052 178.184 117.495ZM173.855 115.364H178.198C178.14 114.709 177.974 114.219 177.7 113.892C177.28 113.384 176.736 113.13 176.067 113.13C175.461 113.13 174.951 113.333 174.536 113.738C174.126 114.143 173.899 114.685 173.855 115.364ZM181.208 120V112.222H182.395V113.328C182.966 112.473 183.792 112.046 184.871 112.046C185.339 112.046 185.769 112.131 186.16 112.302C186.555 112.468 186.851 112.688 187.046 112.961C187.241 113.235 187.378 113.56 187.456 113.936C187.505 114.18 187.529 114.607 187.529 115.217V120H186.211V115.269C186.211 114.731 186.16 114.331 186.057 114.067C185.955 113.799 185.771 113.586 185.508 113.43C185.249 113.269 184.944 113.188 184.592 113.188C184.031 113.188 183.545 113.367 183.135 113.723C182.729 114.08 182.527 114.756 182.527 115.752V120H181.208ZM192.437 118.821L192.627 119.985C192.256 120.063 191.924 120.103 191.631 120.103C191.152 120.103 190.781 120.027 190.518 119.875C190.254 119.724 190.068 119.526 189.961 119.282C189.854 119.033 189.8 118.513 189.8 117.722V113.247H188.833V112.222H189.8V110.295L191.111 109.504V112.222H192.437V113.247H191.111V117.795C191.111 118.171 191.133 118.413 191.177 118.521C191.226 118.628 191.301 118.713 191.404 118.777C191.511 118.84 191.663 118.872 191.858 118.872C192.004 118.872 192.197 118.855 192.437 118.821ZM193.242 116.111C193.242 114.67 193.643 113.604 194.443 112.91C195.112 112.334 195.928 112.046 196.89 112.046C197.959 112.046 198.833 112.397 199.512 113.101C200.19 113.799 200.53 114.766 200.53 116.001C200.53 117.002 200.378 117.791 200.076 118.367C199.778 118.938 199.341 119.382 198.765 119.7C198.193 120.017 197.568 120.176 196.89 120.176C195.801 120.176 194.919 119.827 194.246 119.128C193.577 118.43 193.242 117.424 193.242 116.111ZM194.597 116.111C194.597 117.107 194.814 117.854 195.249 118.352C195.684 118.845 196.23 119.092 196.89 119.092C197.544 119.092 198.088 118.843 198.523 118.345C198.958 117.847 199.175 117.087 199.175 116.067C199.175 115.105 198.955 114.377 198.516 113.884C198.081 113.386 197.539 113.137 196.89 113.137C196.23 113.137 195.684 113.384 195.249 113.877C194.814 114.37 194.597 115.115 194.597 116.111ZM202.456 120V118.499H203.958V120H202.456ZM206.631 120V118.499H208.132V120H206.631ZM210.806 120V118.499H212.307V120H210.806Z" fill="#676767"/>
<defs>
<clipPath id="clip0_519_4507">
<rect width="75" height="88" fill="white" transform="translate(69)"/>
</clipPath>
</defs>
</svg>
