<svg width="49" height="49" viewBox="0 0 49 49" fill="none" xmlns="http://www.w3.org/2000/svg">
<g filter="url(#filter0_d_372_2872)">
<rect x="2" y="1" width="45" height="45" rx="5" fill="#2F735E"/>
<path d="M22.416 31.7917C22.416 32.9375 23.3535 33.875 24.4993 33.875C25.6452 33.875 26.5827 32.9375 26.5827 31.7917C26.5827 30.6458 25.6452 29.7083 24.4993 29.7083C23.3535 29.7083 22.416 30.6458 22.416 31.7917ZM22.416 17.2083C22.416 18.3542 23.3535 19.2917 24.4993 19.2917C25.6452 19.2917 26.5827 18.3542 26.5827 17.2083C26.5827 16.0625 25.6452 15.125 24.4993 15.125C23.3535 15.125 22.416 16.0625 22.416 17.2083ZM22.416 24.5C22.416 25.6458 23.3535 26.5833 24.4993 26.5833C25.6452 26.5833 26.5827 25.6458 26.5827 24.5C26.5827 23.3542 25.6452 22.4167 24.4993 22.4167C23.3535 22.4167 22.416 23.3542 22.416 24.5Z" fill="white"/>
</g>
<defs>
<filter id="filter0_d_372_2872" x="0" y="0" width="49" height="49" filterUnits="userSpaceOnUse" color-interpolation-filters="sRGB">
<feFlood flood-opacity="0" result="BackgroundImageFix"/>
<feColorMatrix in="SourceAlpha" type="matrix" values="0 0 0 0 0 0 0 0 0 0 0 0 0 0 0 0 0 0 127 0" result="hardAlpha"/>
<feOffset dy="1"/>
<feGaussianBlur stdDeviation="1"/>
<feComposite in2="hardAlpha" operator="out"/>
<feColorMatrix type="matrix" values="0 0 0 0 0 0 0 0 0 0 0 0 0 0 0 0 0 0 0.25 0"/>
<feBlend mode="normal" in2="BackgroundImageFix" result="effect1_dropShadow_372_2872"/>
<feBlend mode="normal" in="SourceGraphic" in2="effect1_dropShadow_372_2872" result="shape"/>
</filter>
</defs>
</svg>
