<svg width="49" height="49" viewBox="0 0 49 49" fill="none" xmlns="http://www.w3.org/2000/svg">
<g filter="url(#filter0_d_365_4876)">
<rect x="2" y="1" width="45" height="45" rx="5" fill="#2F735E"/>
<path d="M24.0002 13.375C18.6846 13.375 14.3754 17.6843 14.3754 23C14.3754 24.7534 14.8435 26.3952 15.6613 27.8097C15.7548 27.9709 15.7785 28.1629 15.7273 28.3422L14.5635 32.4352L18.6555 31.2715C18.7441 31.2462 18.8369 31.239 18.9284 31.2504C19.0198 31.2617 19.1081 31.2913 19.1878 31.3375C20.6502 32.184 22.3106 32.6282 24.0002 32.625C29.3159 32.625 33.625 28.3158 33.625 23C33.625 17.6843 29.3159 13.375 24.0002 13.375ZM13.0005 23C13.0005 16.9247 17.9251 12 24.0002 12C30.0754 12 35 16.9247 35 23C35 29.0753 30.0754 34 24.0002 34C22.1028 34 20.3164 33.5193 18.7572 32.6723L14.227 33.9604C13.5015 34.1667 12.8316 33.4962 13.0379 32.7713L14.3259 28.2404C13.453 26.6319 12.9972 24.8301 13.0005 23ZM19.6003 20.9375C19.6003 20.558 19.9083 20.25 20.2878 20.25H27.7127C27.8029 20.25 27.8923 20.2678 27.9757 20.3023C28.0592 20.3369 28.1349 20.3875 28.1988 20.4514C28.2626 20.5152 28.3133 20.591 28.3478 20.6744C28.3824 20.7578 28.4001 20.8472 28.4001 20.9375C28.4001 21.0278 28.3824 21.1172 28.3478 21.2006C28.3133 21.284 28.2626 21.3598 28.1988 21.4236C28.1349 21.4875 28.0592 21.5381 27.9757 21.5727C27.8923 21.6072 27.8029 21.625 27.7127 21.625H20.2878C19.9083 21.625 19.6003 21.317 19.6003 20.9375ZM20.2878 24.375C20.1055 24.375 19.9306 24.4474 19.8017 24.5764C19.6728 24.7053 19.6003 24.8802 19.6003 25.0625C19.6003 25.2448 19.6728 25.4197 19.8017 25.5486C19.9306 25.6776 20.1055 25.75 20.2878 25.75H25.5127C25.695 25.75 25.8699 25.6776 25.9988 25.5486C26.1278 25.4197 26.2002 25.2448 26.2002 25.0625C26.2002 24.8802 26.1278 24.7053 25.9988 24.5764C25.8699 24.4474 25.695 24.375 25.5127 24.375H20.2878Z" fill="white"/>
</g>
<defs>
<filter id="filter0_d_365_4876" x="0" y="0" width="49" height="49" filterUnits="userSpaceOnUse" color-interpolation-filters="sRGB">
<feFlood flood-opacity="0" result="BackgroundImageFix"/>
<feColorMatrix in="SourceAlpha" type="matrix" values="0 0 0 0 0 0 0 0 0 0 0 0 0 0 0 0 0 0 127 0" result="hardAlpha"/>
<feOffset dy="1"/>
<feGaussianBlur stdDeviation="1"/>
<feComposite in2="hardAlpha" operator="out"/>
<feColorMatrix type="matrix" values="0 0 0 0 0 0 0 0 0 0 0 0 0 0 0 0 0 0 0.25 0"/>
<feBlend mode="normal" in2="BackgroundImageFix" result="effect1_dropShadow_365_4876"/>
<feBlend mode="normal" in="SourceGraphic" in2="effect1_dropShadow_365_4876" result="shape"/>
</filter>
</defs>
</svg>
