<svg width="49" height="49" viewBox="0 0 49 49" fill="none" xmlns="http://www.w3.org/2000/svg">
<g filter="url(#filter0_d_365_4870)">
<rect x="2" y="1" width="45" height="45" rx="5" fill="#2F735E"/>
<path d="M22 32H26C26 33.1 25.1 34 24 34C22.9 34 22 33.1 22 32ZM33 30V31H15V30L17 28V22C17 18.9 19 16.2 22 15.3V15C22 13.9 22.9 13 24 13C25.1 13 26 13.9 26 15V15.3C29 16.2 31 18.9 31 22V28L33 30ZM29 22C29 19.2 26.8 17 24 17C21.2 17 19 19.2 19 22V29H29V22Z" fill="white"/>
</g>
<defs>
<filter id="filter0_d_365_4870" x="0" y="0" width="49" height="49" filterUnits="userSpaceOnUse" color-interpolation-filters="sRGB">
<feFlood flood-opacity="0" result="BackgroundImageFix"/>
<feColorMatrix in="SourceAlpha" type="matrix" values="0 0 0 0 0 0 0 0 0 0 0 0 0 0 0 0 0 0 127 0" result="hardAlpha"/>
<feOffset dy="1"/>
<feGaussianBlur stdDeviation="1"/>
<feComposite in2="hardAlpha" operator="out"/>
<feColorMatrix type="matrix" values="0 0 0 0 0 0 0 0 0 0 0 0 0 0 0 0 0 0 0.25 0"/>
<feBlend mode="normal" in2="BackgroundImageFix" result="effect1_dropShadow_365_4870"/>
<feBlend mode="normal" in="SourceGraphic" in2="effect1_dropShadow_365_4870" result="shape"/>
</filter>
</defs>
</svg>
