<svg width="49" height="49" viewBox="0 0 49 49" fill="none" xmlns="http://www.w3.org/2000/svg">
<g filter="url(#filter0_d_519_4596)">
<rect x="2" y="1" width="45" height="45" rx="5" fill="#2F735E"/>
<path d="M17.625 35.875H12.125V33.125H17.625V31.75H14.875C14.1457 31.75 13.4462 31.4603 12.9305 30.9445C12.4147 30.4288 12.125 29.7293 12.125 29V27.625C12.125 26.1125 13.3625 24.875 14.875 24.875H17.625C18.3543 24.875 19.0538 25.1647 19.5695 25.6805C20.0853 26.1962 20.375 26.8957 20.375 27.625V33.125C20.375 34.6513 19.1512 35.875 17.625 35.875ZM17.625 27.625H14.875V29H17.625M14.875 11.125H17.625C18.3543 11.125 19.0538 11.4147 19.5695 11.9305C20.0853 12.4462 20.375 13.1457 20.375 13.875V19.375C20.375 20.9012 19.1512 22.125 17.625 22.125H14.875C14.1457 22.125 13.4462 21.8353 12.9305 21.3195C12.4147 20.8038 12.125 20.1043 12.125 19.375V13.875C12.125 12.3625 13.3625 11.125 14.875 11.125ZM14.875 19.375H17.625V13.875H14.875M24.5 13.875H38.25V16.625H24.5M24.5 33.125V30.375H38.25V33.125M24.5 22.125H38.25V24.875H24.5V22.125Z" fill="white"/>
</g>
<defs>
<filter id="filter0_d_519_4596" x="0" y="0" width="49" height="49" filterUnits="userSpaceOnUse" color-interpolation-filters="sRGB">
<feFlood flood-opacity="0" result="BackgroundImageFix"/>
<feColorMatrix in="SourceAlpha" type="matrix" values="0 0 0 0 0 0 0 0 0 0 0 0 0 0 0 0 0 0 127 0" result="hardAlpha"/>
<feOffset dy="1"/>
<feGaussianBlur stdDeviation="1"/>
<feComposite in2="hardAlpha" operator="out"/>
<feColorMatrix type="matrix" values="0 0 0 0 0 0 0 0 0 0 0 0 0 0 0 0 0 0 0.25 0"/>
<feBlend mode="normal" in2="BackgroundImageFix" result="effect1_dropShadow_519_4596"/>
<feBlend mode="normal" in="SourceGraphic" in2="effect1_dropShadow_519_4596" result="shape"/>
</filter>
</defs>
</svg>
