<svg width="114" height="40" viewBox="0 0 114 40" fill="none" xmlns="http://www.w3.org/2000/svg">
<rect width="113.311" height="40" rx="10" fill="#2F735E"/>
<path d="M41.1953 16.2686H38.3477V25.6289C38.3477 26.168 38.2275 26.5693 37.9873 26.833C37.7471 27.0908 37.4365 27.2197 37.0557 27.2197C36.6689 27.2197 36.3525 27.0879 36.1064 26.8242C35.8662 26.5605 35.7461 26.1621 35.7461 25.6289V16.2686H32.8984C32.4531 16.2686 32.1221 16.1719 31.9053 15.9785C31.6885 15.7793 31.5801 15.5186 31.5801 15.1963C31.5801 14.8623 31.6914 14.5986 31.9141 14.4053C32.1426 14.2119 32.4707 14.1152 32.8984 14.1152H41.1953C41.6465 14.1152 41.9805 14.2148 42.1973 14.4141C42.4199 14.6133 42.5312 14.874 42.5312 15.1963C42.5312 15.5186 42.4199 15.7793 42.1973 15.9785C41.9746 16.1719 41.6406 16.2686 41.1953 16.2686ZM51.751 22.3418C51.751 23.0566 51.6396 23.7158 51.417 24.3193C51.1943 24.9229 50.8721 25.4414 50.4502 25.875C50.0283 26.3086 49.5244 26.6426 48.9385 26.877C48.3525 27.1055 47.6934 27.2197 46.9609 27.2197C46.2344 27.2197 45.5811 27.1025 45.001 26.8682C44.4209 26.6338 43.917 26.2998 43.4893 25.8662C43.0674 25.4268 42.7451 24.9111 42.5225 24.3193C42.3057 23.7217 42.1973 23.0625 42.1973 22.3418C42.1973 21.6152 42.3086 20.9502 42.5312 20.3467C42.7539 19.7432 43.0732 19.2275 43.4893 18.7998C43.9053 18.3721 44.4092 18.0439 45.001 17.8154C45.5928 17.5811 46.2461 17.4639 46.9609 17.4639C47.6875 17.4639 48.3467 17.5811 48.9385 17.8154C49.5303 18.0498 50.0371 18.3838 50.459 18.8174C50.8809 19.251 51.2002 19.7666 51.417 20.3643C51.6396 20.9619 51.751 21.6211 51.751 22.3418ZM49.3428 22.3418C49.3428 21.3633 49.126 20.6016 48.6924 20.0566C48.2646 19.5117 47.6875 19.2393 46.9609 19.2393C46.4922 19.2393 46.0791 19.3623 45.7217 19.6084C45.3643 19.8486 45.0889 20.2061 44.8955 20.6807C44.7021 21.1553 44.6055 21.709 44.6055 22.3418C44.6055 22.9688 44.6992 23.5166 44.8867 23.9854C45.0801 24.4541 45.3525 24.8145 45.7041 25.0664C46.0615 25.3125 46.4805 25.4355 46.9609 25.4355C47.6875 25.4355 48.2646 25.1631 48.6924 24.6182C49.126 24.0674 49.3428 23.3086 49.3428 22.3418ZM60.2236 25.8486V25.6113C59.9014 25.9805 59.582 26.2822 59.2656 26.5166C58.9551 26.7451 58.6152 26.918 58.2461 27.0352C57.8828 27.1582 57.4844 27.2197 57.0508 27.2197C56.4766 27.2197 55.9434 27.0996 55.4512 26.8594C54.9648 26.6133 54.543 26.2646 54.1855 25.8135C53.8281 25.3623 53.5557 24.832 53.3682 24.2227C53.1865 23.6133 53.0957 22.9541 53.0957 22.2451C53.0957 20.7451 53.4619 19.5762 54.1943 18.7383C54.9268 17.9004 55.8906 17.4814 57.0859 17.4814C57.7773 17.4814 58.3604 17.6016 58.835 17.8418C59.3096 18.0762 59.7725 18.4395 60.2236 18.9316V15.3896C60.2236 14.8975 60.3203 14.5254 60.5137 14.2734C60.7129 14.0215 60.9941 13.8955 61.3574 13.8955C61.7207 13.8955 61.999 14.0127 62.1924 14.2471C62.3916 14.4756 62.4912 14.8154 62.4912 15.2666V25.8486C62.4912 26.3057 62.3857 26.6484 62.1748 26.877C61.9639 27.1055 61.6914 27.2197 61.3574 27.2197C61.0293 27.2197 60.7568 27.1025 60.54 26.8682C60.3291 26.6279 60.2236 26.2881 60.2236 25.8486ZM55.5039 22.3242C55.5039 22.9746 55.6035 23.5283 55.8027 23.9854C56.0078 24.4424 56.2861 24.7881 56.6377 25.0225C56.9893 25.251 57.373 25.3652 57.7891 25.3652C58.2109 25.3652 58.5947 25.2568 58.9404 25.04C59.292 24.8174 59.5703 24.4805 59.7754 24.0293C59.9863 23.5723 60.0918 23.0039 60.0918 22.3242C60.0918 21.6855 59.9863 21.1377 59.7754 20.6807C59.5703 20.2178 59.2891 19.8662 58.9316 19.626C58.5801 19.3799 58.1934 19.2568 57.7715 19.2568C57.332 19.2568 56.9395 19.3828 56.5938 19.6348C56.248 19.8809 55.9785 20.2383 55.7852 20.707C55.5977 21.1699 55.5039 21.709 55.5039 22.3242ZM73.8818 22.3418C73.8818 23.0566 73.7705 23.7158 73.5479 24.3193C73.3252 24.9229 73.0029 25.4414 72.5811 25.875C72.1592 26.3086 71.6553 26.6426 71.0693 26.877C70.4834 27.1055 69.8242 27.2197 69.0918 27.2197C68.3652 27.2197 67.7119 27.1025 67.1318 26.8682C66.5518 26.6338 66.0479 26.2998 65.6201 25.8662C65.1982 25.4268 64.876 24.9111 64.6533 24.3193C64.4365 23.7217 64.3281 23.0625 64.3281 22.3418C64.3281 21.6152 64.4395 20.9502 64.6621 20.3467C64.8848 19.7432 65.2041 19.2275 65.6201 18.7998C66.0361 18.3721 66.54 18.0439 67.1318 17.8154C67.7236 17.5811 68.377 17.4639 69.0918 17.4639C69.8184 17.4639 70.4775 17.5811 71.0693 17.8154C71.6611 18.0498 72.168 18.3838 72.5898 18.8174C73.0117 19.251 73.3311 19.7666 73.5479 20.3643C73.7705 20.9619 73.8818 21.6211 73.8818 22.3418ZM71.4736 22.3418C71.4736 21.3633 71.2568 20.6016 70.8232 20.0566C70.3955 19.5117 69.8184 19.2393 69.0918 19.2393C68.623 19.2393 68.21 19.3623 67.8525 19.6084C67.4951 19.8486 67.2197 20.2061 67.0264 20.6807C66.833 21.1553 66.7363 21.709 66.7363 22.3418C66.7363 22.9688 66.8301 23.5166 67.0176 23.9854C67.2109 24.4541 67.4834 24.8145 67.835 25.0664C68.1924 25.3125 68.6113 25.4355 69.0918 25.4355C69.8184 25.4355 70.3955 25.1631 70.8232 24.6182C71.2568 24.0674 71.4736 23.3086 71.4736 22.3418ZM83.5059 24.082C83.5059 24.7441 83.3447 25.3125 83.0225 25.7871C82.7002 26.2559 82.2227 26.6133 81.5898 26.8594C80.9629 27.0996 80.1982 27.2197 79.2959 27.2197C78.4346 27.2197 77.6963 27.0879 77.0811 26.8242C76.4658 26.5605 76.0117 26.2324 75.7188 25.8398C75.4258 25.4414 75.2793 25.043 75.2793 24.6445C75.2793 24.3809 75.373 24.1553 75.5605 23.9678C75.748 23.7803 75.9854 23.6865 76.2725 23.6865C76.5244 23.6865 76.7178 23.748 76.8525 23.8711C76.9873 23.9941 77.1162 24.167 77.2393 24.3896C77.4854 24.8174 77.7783 25.1367 78.1182 25.3477C78.4639 25.5586 78.9326 25.6641 79.5244 25.6641C80.0049 25.6641 80.3975 25.5586 80.7021 25.3477C81.0127 25.1309 81.168 24.8848 81.168 24.6094C81.168 24.1875 81.0068 23.8799 80.6846 23.6865C80.3682 23.4932 79.8438 23.3086 79.1113 23.1328C78.2852 22.9277 77.6113 22.7139 77.0898 22.4912C76.5742 22.2627 76.1611 21.9639 75.8506 21.5947C75.54 21.2256 75.3848 20.7715 75.3848 20.2324C75.3848 19.752 75.5283 19.2979 75.8154 18.8701C76.1025 18.4424 76.5244 18.1025 77.0811 17.8506C77.6436 17.5928 78.3203 17.4639 79.1113 17.4639C79.7324 17.4639 80.2891 17.5283 80.7812 17.6572C81.2793 17.7861 81.6924 17.959 82.0205 18.1758C82.3545 18.3926 82.6064 18.6328 82.7764 18.8965C82.9521 19.1602 83.04 19.418 83.04 19.6699C83.04 19.9453 82.9463 20.1709 82.7588 20.3467C82.5771 20.5225 82.3164 20.6104 81.9766 20.6104C81.7305 20.6104 81.5195 20.54 81.3438 20.3994C81.1738 20.2588 80.9775 20.0479 80.7549 19.7666C80.5732 19.5322 80.3594 19.3447 80.1133 19.2041C79.8672 19.0635 79.5332 18.9932 79.1113 18.9932C78.6777 18.9932 78.3174 19.0869 78.0303 19.2744C77.7432 19.4561 77.5996 19.6846 77.5996 19.96C77.5996 20.2119 77.7051 20.4199 77.916 20.584C78.127 20.7422 78.4111 20.874 78.7686 20.9795C79.126 21.085 79.6182 21.2139 80.2451 21.3662C80.9893 21.5479 81.5957 21.7646 82.0645 22.0166C82.5391 22.2686 82.8965 22.5674 83.1367 22.9131C83.3828 23.2529 83.5059 23.6426 83.5059 24.082Z" fill="white"/>
</svg>
