<svg width="347" height="209" viewBox="0 0 347 209" fill="none" xmlns="http://www.w3.org/2000/svg">
<g filter="url(#filter0_d_552_3344)">
<path d="M6 11C6 8.23858 8.23858 6 11 6H336C338.761 6 341 8.23858 341 11V198C341 200.761 338.761 203 336 203H11C8.23857 203 6 200.761 6 198V11Z" fill="white"/>
<path d="M6 11C6 8.23858 8.23858 6 11 6H336C338.761 6 341 8.23858 341 11V198C341 200.761 338.761 203 336 203H11C8.23857 203 6 200.761 6 198V11Z" fill="url(#paint0_linear_552_3344)"/>
</g>
<path d="M160.85 101.581C163.153 101.581 165.02 99.7144 165.02 97.4113C165.02 95.1082 163.153 93.2412 160.85 93.2412C158.547 93.2412 156.68 95.1082 156.68 97.4113C156.68 99.7144 158.547 101.581 160.85 101.581Z" fill="#828282"/>
<path d="M169.19 109.921L165.02 104.361L156.68 115.481H190.041L177.53 98.8008L169.19 109.921Z" fill="#828282"/>
<path d="M195.6 82.1211H151.119C148.052 82.1211 145.559 84.6148 145.559 87.6813V121.042C145.559 124.109 148.052 126.602 151.119 126.602H195.6C198.667 126.602 201.16 124.109 201.16 121.042V87.6813C201.16 84.6148 198.667 82.1211 195.6 82.1211ZM151.119 121.042V87.6813H195.6L195.606 121.042H151.119Z" fill="#828282"/>
<defs>
<filter id="filter0_d_552_3344" x="0" y="0" width="347" height="209" filterUnits="userSpaceOnUse" color-interpolation-filters="sRGB">
<feFlood flood-opacity="0" result="BackgroundImageFix"/>
<feColorMatrix in="SourceAlpha" type="matrix" values="0 0 0 0 0 0 0 0 0 0 0 0 0 0 0 0 0 0 127 0" result="hardAlpha"/>
<feMorphology radius="2" operator="dilate" in="SourceAlpha" result="effect1_dropShadow_552_3344"/>
<feOffset/>
<feGaussianBlur stdDeviation="2"/>
<feComposite in2="hardAlpha" operator="out"/>
<feColorMatrix type="matrix" values="0 0 0 0 0 0 0 0 0 0 0 0 0 0 0 0 0 0 0.3 0"/>
<feBlend mode="normal" in2="BackgroundImageFix" result="effect1_dropShadow_552_3344"/>
<feBlend mode="normal" in="SourceGraphic" in2="effect1_dropShadow_552_3344" result="shape"/>
</filter>
<linearGradient id="paint0_linear_552_3344" x1="173.5" y1="6" x2="173.5" y2="203" gradientUnits="userSpaceOnUse">
<stop stop-color="#B3B3B3" stop-opacity="0"/>
<stop offset="1" stop-color="#D8D8D8"/>
</linearGradient>
</defs>
</svg>
