<?xml version="1.0" encoding="UTF-8"?>
<!DOCTYPE svg PUBLIC "-//W3C//DTD SVG 1.0//EN" "http://www.w3.org/TR/2001/REC-SVG-20010904/DTD/svg10.dtd">
<!-- Creator: CorelDRAW 2018 (64 Bit) -->
<svg xmlns="http://www.w3.org/2000/svg" xml:space="preserve" width="872px" height="287px" version="1.0" shape-rendering="geometricPrecision" text-rendering="geometricPrecision" image-rendering="optimizeQuality" fill-rule="evenodd" clip-rule="evenodd"
viewBox="0 0 731.14 240.68"
 xmlns:xlink="http://www.w3.org/1999/xlink">
 <g id="Camada_x0020_1">
  <metadata id="CorelCorpID_0Corel-Layer"/>
  <g id="_2891771042304">
   <path fill="white" d="M155.07 77l4.13 12.91c0.47,1.41 1.13,3.05 1.45,4.43l-11.46 0c0.17,-0.73 0.45,-1.42 0.7,-2.17l4.22 -12.97c0.15,-0.45 0.24,-0.7 0.38,-1.13 0.21,-0.68 0.19,-0.78 0.58,-1.07zm-86.08 94.22l0 0.46c9.01,0 17.61,0.15 26.53,0.15l23.07 0.15c1.31,-0.01 2,0.15 3.31,0.15 9.03,-0.03 17.59,0.15 26.54,0.15l19.75 0.15c2.4,0 4.34,0.15 6.63,0.15l0 -2.11 -19.75 0.15c-1.79,0 -4.96,-0.18 -6.57,0.06 -1.6,0.25 -10.78,0.09 -13.18,0.09 -4.6,0 -8.7,0.15 -13.26,0.15 -17.79,0 -35.24,0.3 -53.07,0.3zm0 -52.91c17.76,0 35.15,-0.31 52.91,-0.31 2.36,0 4.26,-0.15 6.49,-0.15l16.58 0.01c1.28,0 1.99,-0.16 3.32,-0.16 8.98,0.02 17.7,-0.15 26.53,-0.15l-26.37 -0.6c-9.02,-0.02 -17.62,-0.15 -26.55,-0.15 -7.68,0 -15.28,-0.19 -23.06,-0.15 -1.22,0.01 -1.99,-0.16 -3.32,-0.15 -9.02,0.01 -17.57,-0.15 -26.53,-0.15l0 1.96zm0.15 -22.01c0,6.16 3.11,11.27 8.89,13.57 4.59,1.82 11.56,1.61 16.1,-0.2 3.64,-1.45 6.52,-4.56 7.58,-8.4 0.62,-2.27 0.9,-4.32 0.9,-7.24l0 -25.48c0,-0.34 -0.1,-0.44 -0.44,-0.45l-0.01 0 -8.3 0 0 26.84c0,5.53 -2.53,8.59 -7.84,8.59 -3.47,0 -5.82,-0.89 -7.23,-3.77 -1.25,-2.51 -0.91,-6.38 -0.91,-10.1l0.02 -20.51c0,-0.57 0.11,-1.05 -0.47,-1.05l-8.29 0 0 28.2zm37.69 13.72l37.39 0c0.06,-0.76 2.53,-8.22 2.71,-8.6l15.98 0 2.93 8.57 8.98 0.03c-0.06,-0.78 -0.58,-1.83 -0.84,-2.63l-3.77 -10.4c-0.35,-0.93 -0.66,-1.81 -0.94,-2.67l-5.65 -15.62c-0.33,-0.84 -0.62,-1.69 -0.91,-2.55l-2.81 -7.9 -10.1 0c-0.06,0.67 -2.66,7.84 -2.93,8.53l-4.52 12.68c-0.49,1.45 -1.03,2.75 -1.51,4.22 -0.31,0.96 -2.89,7.79 -2.95,8.5l-22.62 0 0 -10.56 19.9 0 0 -7.23 -19.9 0 0 -8.75 21.41 0c0.35,0 0.45,-0.11 0.45,-0.45l0 -6.94 -30.3 0 0 41.77z"/>
   <path fill="white" d="M82.71 167.45l1.51 0 0 -7.99 2.05 6.09c0.71,2.13 0.3,1.9 1.71,1.9 0.56,0 0.58,-0.75 0.93,-1.78l2.24 -6.36 0 8.14 1.51 0 0 -10.4c-2.45,0 -2.07,-0.17 -2.42,0.75l-2.56 7.69c-0.53,-0.76 -2.69,-8.22 -2.71,-8.44l-2.26 0 0 10.4zm50.65 -34.67l1.51 0 0 -10.4 -1.51 0 0 10.4zm-42.51 0l1.51 0 0 -10.4 -1.51 0 0 10.4zm21.56 7.84c0,0.75 1.28,0.45 3.32,0.45l0 9.05 1.5 0 0 -9.05c3.8,0 3.32,0.36 3.32,-1.35l-8.14 0 0 0.9zm-14.93 -7.84l1.66 0c0.06,-0.7 0.59,-1.96 0.84,-2.63l2.63 -7.77 -1.51 0 -2.8 8.46c-0.69,-2.04 -2.55,-6.84 -2.93,-8.46l-1.51 0 3.62 10.4zm14.33 25.48l5.87 0 -3.25 4.13c-0.59,0.76 -3.08,3.55 -3.08,4.31l0 0.75 8.14 0 0 -1.35 -6.18 0c0.69,-1.03 6.18,-7.56 6.18,-7.99l0 -1.06 -7.68 0 0 1.21zm39.34 -34.07c0.47,0.34 1.51,3.54 1.66,4.22l-3.01 0c0.07,-0.91 1.03,-2.83 1.35,-4.22zm-4.52 8.59l1.51 0c0.2,-0.43 0.33,-0.92 0.51,-1.45 0.2,-0.61 0.4,-0.96 0.54,-1.57l4.07 0c0.35,0.72 0.86,2.18 1.06,3.02l1.66 0 -2.85 -7.71c-0.25,-0.7 -0.86,-1.97 -0.92,-2.69l-1.81 0c-0.19,0.82 -0.6,1.8 -0.9,2.56 -0.35,0.87 -0.64,1.7 -1,2.63l-1.87 5.21zm-73.57 25.93l1.51 4.37 -3.17 0 1.41 -3.86c0.02,-0.05 0.07,-0.18 0.09,-0.22 0.14,-0.31 0.05,-0.13 0.16,-0.29zm-4.67 8.74l1.5 0 1.06 -3.01 4.07 0 1.06 3.01 1.65 0c-0.16,-0.34 -0.3,-0.83 -0.45,-1.2l-3.47 -9.2 -1.65 0 -1.9 5.19c-0.34,0.9 -0.65,1.72 -0.95,2.52 -0.22,0.61 -0.88,2.14 -0.92,2.69zm56.23 -26.08l0.25 0.51c0.09,0.24 0.13,0.37 0.2,0.55 0.39,1 0.79,2.52 1.21,3.31l-3.17 0 1.51 -4.37zm-4.67 8.75l1.65 0c0.04,-0.47 0.85,-2.63 1.06,-3.02l4.07 0 1.06 3.02 1.5 0c-0.05,-0.69 -0.66,-1.99 -0.88,-2.59l-2.88 -7.81 -1.66 0 -3.92 10.4zm38.14 8.59l1.51 4.37 -3.17 0 1.6 -4.27c0.01,-0.02 0.04,-0.07 0.06,-0.1zm-4.67 8.74l1.5 0 1.06 -3.01 4.07 0 1.05 3.01 1.66 0c-0.35,-0.74 -0.69,-1.76 -1,-2.62l-1.97 -5.26c-1.13,-2.89 -0.4,-2.52 -2.3,-2.52 -0.52,0 -0.81,1.38 -1.19,2.43l-1.96 5.28c-0.25,0.7 -0.87,1.97 -0.92,2.69zm-51.11 -8.74c0.02,0.03 0.04,0.04 0.05,0.1 0.01,0.05 0.05,0.07 0.06,0.09l0.66 1.9c0.22,0.66 0.67,1.53 0.73,2.28l-3.01 0 1.51 -4.37zm-4.68 8.74l1.66 0c0.1,-1.1 0.82,-1.99 0.91,-3.01l4.22 0c0.18,0.78 0.72,2.38 1.05,3.01l1.51 0c-0.07,-0.81 -3.46,-9.09 -3.77,-10.4l-1.66 0c-0.37,0.71 -0.64,1.65 -0.96,2.5l-2.96 7.9zm-28.19 -38.44c0,5.47 6.18,4.47 7.46,2.63 1.19,-1.72 0.83,-6.69 0.83,-9.26l-1.51 0c0,1.53 0.19,6.91 -0.36,8.07 -0.69,1.46 -3.47,1.52 -4.43,0.34 -0.83,-1.03 -0.48,-6.46 -0.48,-8.41l-1.51 0 0 6.63zm25.48 21.11l7.54 0 0 -1.36 -6.18 0c0,-2.08 -0.32,-3.47 0.45,-3.47l5.12 0 0 -1.2 -5.57 0 0 -3.02 6.03 0 0 -1.35 -7.39 0 0 10.4zm9.2 -17.34l7.54 0 0 -1.36 -6.04 0 0 -3.46 5.43 0 0 -1.21 -5.43 0 0 -3.02 5.88 0 0 -1.35 -7.38 0 0 10.4zm-0.15 9.5c0,1.97 0.95,2.46 2.89,2.98 1.28,0.35 3.44,0.52 3.44,1.99 0,1.66 -1.69,1.81 -2.87,1.81 -1.48,0 -2.29,-1.03 -2.41,-2.41l-1.36 0c0,4.32 5.01,4.37 6.88,2.96 1.41,-1.06 1.7,-3.22 0.48,-4.44 -0.52,-0.52 -1.13,-0.66 -1.99,-0.87 -1.5,-0.37 -3.71,-0.53 -3.71,-2.02 0,-2.07 4.61,-2.53 4.68,0.45l1.5 0c-0.4,-4.89 -7.53,-3.89 -7.53,-0.45zm63.92 -9.5l7.54 0 0 -1.36 -6.03 0 0 -3.46 5.57 0 0 -1.21 -5.57 0 0 -3.02 5.57 0c0.59,0 0.46,-0.38 0.46,-1.35l-7.54 0 0 10.4zm-44.48 -7.69c0,4.13 6.34,1.91 6.34,4.98 0,2.06 -5.13,2.7 -5.13,-0.76l-1.51 0c0,4.96 8.14,5.06 8.14,0.3 0,-3.93 -6.33,-1.75 -6.33,-4.82 0,-1.87 4.52,-2.39 4.52,0.6l1.51 0c0,-4.62 -7.54,-4.19 -7.54,-0.3zm44.18 34.68c0,4.12 6.33,1.91 6.33,4.97 0,2.08 -5.13,2.7 -5.13,-0.75l-1.5 0c0,4.96 8.14,5.05 8.14,0.3 0,-3.93 -6.34,-1.81 -6.34,-4.83 0,-1.87 4.53,-2.38 4.53,0.61l1.51 0c0,-4.64 -7.54,-4.18 -7.54,-0.3zm-7.69 -11.01l-2.72 0 0 -7.84c2.37,0 5.58,-0.47 5.58,3.77 0,1.87 -0.67,4.07 -2.86,4.07zm-4.22 1.36l4.22 0c5.73,0 5.9,-10.4 0.3,-10.4l-4.52 0 0 10.4zm-82.02 -1.36l-2.71 0 0 -7.84 2.26 0c2.31,0 3.32,1.62 3.32,3.92 0,2.03 -0.84,3.92 -2.87,3.92zm-4.22 1.36l4.22 0c5.92,0 5.6,-10.4 0.61,-10.4l-4.83 0 0 10.4zm72.06 -18.7l-2.71 0 0 -7.84c2.15,0 4.69,-0.38 5.32,2.23 0.62,2.59 -0.04,5.61 -2.61,5.61zm-4.22 1.36l4.22 0c2.85,0 4.38,-2.41 4.38,-5.28 0,-2.83 -1.28,-5.12 -4.08,-5.12l-4.52 0 0 10.4zm24.13 -1.36l-2.57 0 0 -7.84c3.68,0 5.43,-0.18 5.43,4.38 0,1.86 -1.01,3.46 -2.86,3.46zm-4.07 1.36l4.22 0c2.42,0 4.22,-2.11 4.22,-4.52 0,-1.78 0.14,-3.09 -1.03,-4.55 -1.46,-1.84 -4.57,-1.33 -7.41,-1.33l0 10.4zm-23.07 15.98l-2.41 0 0 -7.84c1.62,0 3.47,-0.24 4.49,0.78 1.38,1.39 1.86,7.06 -2.08,7.06zm-3.92 1.36c3.1,0 5.92,0.51 7.48,-1.57 1.91,-2.55 1.56,-8.83 -2.96,-8.83l-4.52 0 0 10.4zm-12.36 -23.07l-2.87 0 0 -3.47c3.37,0 4.68,-0.38 4.68,1.96 0,1.03 -0.77,1.51 -1.81,1.51zm-4.38 5.73l1.51 0 0 -4.37c6.18,0 3.74,-0.31 4.83,4.37l1.8 0c-0.16,-0.61 -0.55,-0.49 -0.6,-2.86 -0.01,-0.57 -0.03,-0.99 -0.21,-1.46 -0.29,-0.77 -0.45,-0.42 -0.84,-0.96 2.29,-1.21 1.45,-5.12 -1.36,-5.12l-5.13 0 0 10.4zm15.23 25.33c1.39,0 2.21,-0.07 3.13,1.24 0.97,1.36 1.04,4.15 0.11,5.61 -0.91,1.41 -1.91,1.44 -3.09,1.44 -4.22,0 -4.07,-8.29 -0.15,-8.29zm-4.52 3.92c0,1.72 0.37,3.08 1.18,4.1 1.98,2.49 8.77,2.91 8.77,-4.1 0,-2.72 -1.64,-5.28 -4.52,-5.28l-0.91 0c-2.75,0 -4.52,2.48 -4.52,5.28zm-40.56 -21.26c1.26,0 2.32,-0.04 3.15,1.23 1.04,1.58 0.94,4.36 0.11,5.65 -0.85,1.32 -1.79,1.41 -3.11,1.41 -4.21,0 -4.02,-8.29 -0.15,-8.29zm-4.52 4.07c0,1.65 0.44,3.01 1.18,3.95 1.84,2.32 8.77,3.2 8.77,-4.25 0,-2.74 -1.83,-5.13 -4.52,-5.13 -1.79,0 -3.07,0.16 -4.25,1.63 -0.7,0.88 -1.18,2.27 -1.18,3.8zm90.76 -4.07c1.38,0 2.21,-0.06 3.13,1.24 1.68,2.36 0.52,7.05 -2.07,7.05l-0.91 0c-4.22,0 -4.06,-8.29 -0.15,-8.29zm-4.52 4.07c0,3.49 1.71,5.58 5.27,5.58 6.29,0 6.2,-11.01 0.15,-11.01 -1.78,0 -3.06,0.16 -4.24,1.63 -0.7,0.88 -1.18,2.27 -1.18,3.8zm-20.06 4.22c-1.15,0 -2.1,-0.03 -3.04,-1.33 -1.22,-1.67 -1.1,-6.96 2.29,-6.96l0.91 0c3.86,0 4.05,8.29 -0.16,8.29zm-5.27 -4.52c0,3.71 1.43,5.88 5.27,5.88 6.32,0 6.15,-11.01 0.16,-11.01l-0.91 0c-2.69,0 -4.52,2.39 -4.52,5.13zm-0.15 22.91c1.93,0 1.5,0.44 1.5,-3.77l0 -4.22 0.13 0.18c0.12,0.16 0.09,0.12 0.18,0.27 0.74,1.14 4.7,7.08 4.82,7.54l1.66 0 0 -10.4 -1.36 0 0 8.14c-0.02,-0.02 -0.06,-0.1 -0.07,-0.08l-1.25 -1.91c-0.49,-0.72 -0.87,-1.38 -1.36,-2.11l-2.02 -3.11c-0.65,-1.07 -0.21,-0.93 -2.23,-0.93l0 10.4zm-60.01 -34.67l1.51 0 0 -8.14 2.67 4.12c0.46,0.77 0.9,1.35 1.37,2.09 1.36,2.12 0.76,1.93 2.9,1.93l0 -10.4 -1.51 0 0 7.99 -0.33 -0.42c-0.65,-0.91 -4.65,-7.02 -4.8,-7.57l-1.81 0 0 10.4z"/>
   <path fill="white" fill-rule="nonzero" d="M207.92 34.02c-3.43,-7.14 -38.88,-35.2 -86.08,-33.98 -30.24,0.78 -71.74,17.02 -88.37,43.01 -5.21,8.13 0.83,15.81 10.26,18.31 14.58,3.12 45.13,-11.61 70.74,-22.69l0 0c16.92,-7.72 26.02,-10.62 35.99,-12.01 5.66,-0.79 44.92,-4.56 57.46,7.36z"/>
   <path fill="#BDBFC1" fill-rule="nonzero" d="M114.47 38.67c3.58,2.21 35.01,2.04 57.44,33.85 7.81,11.09 28.69,7.36 36.34,1.39 8.25,-6.43 8.58,-17.19 8.6,-18.59 0.13,-8.08 -3.17,-15.82 -8.93,-21.3 -12.53,-11.92 -51.8,-8.15 -57.46,-7.36 -9.97,1.39 -19.07,4.29 -35.99,12.01z"/>
   <path fill="white" fill-rule="nonzero" d="M4.28 92.3c-4.46,6.54 -11.04,51.27 13.61,91.54 15.8,25.8 50.62,53.62 81.43,55.03 9.66,0.44 13.28,-8.63 10.73,-18.05 -4.58,-14.18 -32.61,-33.28 -55.01,-49.92l0 0.01c-15.15,-10.8 -22.21,-17.22 -28.4,-25.17 -3.51,-4.5 -26.42,-36.62 -22.36,-53.44z"/>
   <path fill="#BDBFC1" fill-rule="nonzero" d="M55.04 170.91c0.12,-4.21 -15.74,-31.34 0.6,-66.67 5.69,-12.31 -7.98,-28.53 -16.98,-32.17 -9.69,-3.93 -19.17,1.16 -20.4,1.84 -7.06,3.94 -12.11,10.66 -13.98,18.4 -4.05,16.81 18.85,48.93 22.36,53.43 6.19,7.94 13.25,14.37 28.4,25.17z"/>
   <path fill="white" fill-rule="nonzero" d="M156.58 239.52c7.89,0.6 49.91,-16.07 72.46,-57.56 14.45,-26.57 21.13,-70.64 6.94,-98.04 -4.44,-8.58 -14.11,-7.18 -20.99,-0.26 -9.99,11.06 -12.51,44.88 -15.72,72.6l0 0c-1.78,18.51 -3.81,27.84 -7.59,37.18 -2.15,5.28 -18.51,41.18 -35.1,46.08z"/>
   <path fill="#BDBFC1" fill-rule="nonzero" d="M199.27 156.26c-3.7,2 -19.27,29.3 -58.03,32.82 -13.51,1.22 -20.72,21.16 -19.38,30.78 1.45,10.36 10.6,16.02 11.8,16.74 6.94,4.15 15.29,5.16 22.92,2.91 16.59,-4.89 32.95,-40.79 35.1,-46.07 3.78,-9.34 5.81,-18.67 7.59,-37.18z"/>
   <path fill="white" fill-rule="nonzero" d="M311.38 36.64l0 27.66c0,3.89 0.96,6.77 2.86,8.65 1.9,1.89 4.55,2.83 7.93,2.83 3.35,0 5.97,-0.94 7.87,-2.83 1.9,-1.88 2.86,-4.76 2.86,-8.65l0 -27.66 5.7 0 0 27.6c0,3.63 -0.73,6.7 -2.19,9.18 -1.47,2.49 -3.44,4.34 -5.93,5.55 -2.49,1.22 -5.28,1.82 -8.37,1.82 -3.1,0 -5.89,-0.6 -8.37,-1.82 -2.49,-1.21 -4.46,-3.06 -5.9,-5.55 -1.44,-2.48 -2.16,-5.55 -2.16,-9.18l0 -27.6 5.7 0zm71.12 43.71l-5.71 0 -22.95 -34.8 0 34.8 -5.71 0 0 -43.77 5.71 0 22.95 34.74 0 -34.74 5.71 0 0 43.77zm15.42 -43.71l0 43.71 -5.7 0 0 -43.71 5.7 0zm45.85 0l-16.5 43.71 -6.58 0 -16.49 -43.71 6.08 0 13.73 37.69 13.74 -37.69 6.02 0zm11.97 4.64l0 14.62 15.93 0 0 4.7 -15.93 0 0 15.05 17.81 0 0 4.7 -23.51 0 0 -43.77 23.51 0 0 4.7 -17.81 0zm49.48 39.07l-10.41 -17.87 -6.9 0 0 17.87 -5.7 0 0 -43.71 14.11 0c3.3,0 6.09,0.57 8.37,1.7 2.28,1.13 3.98,2.65 5.11,4.57 1.13,1.93 1.7,4.12 1.7,6.59 0,3.01 -0.87,5.66 -2.61,7.96 -1.73,2.3 -4.34,3.83 -7.81,4.58l10.98 18.31 -6.84 0zm-17.31 -22.45l8.41 0c3.09,0 5.41,-0.76 6.96,-2.29 1.55,-1.52 2.32,-3.56 2.32,-6.11 0,-2.59 -0.76,-4.6 -2.29,-6.02 -1.52,-1.42 -3.86,-2.13 -6.99,-2.13l-8.41 0 0 16.55zm46.28 22.89c-2.88,0 -5.46,-0.51 -7.74,-1.53 -2.28,-1.03 -4.07,-2.45 -5.36,-4.27 -1.3,-1.82 -1.97,-3.92 -2.01,-6.3l6.09 0c0.21,2.05 1.05,3.77 2.54,5.17 1.48,1.41 3.64,2.1 6.48,2.1 2.72,0 4.87,-0.68 6.43,-2.03 1.57,-1.36 2.36,-3.11 2.36,-5.24 0,-1.67 -0.46,-3.03 -1.38,-4.08 -0.92,-1.04 -2.07,-1.84 -3.45,-2.38 -1.38,-0.54 -3.24,-1.13 -5.59,-1.76 -2.88,-0.75 -5.19,-1.5 -6.92,-2.25 -1.74,-0.76 -3.22,-1.94 -4.46,-3.55 -1.23,-1.61 -1.85,-3.77 -1.85,-6.49 0,-2.38 0.61,-4.49 1.82,-6.33 1.22,-1.84 2.92,-3.26 5.11,-4.26 2.2,-1.01 4.72,-1.51 7.56,-1.51 4.1,0 7.45,1.02 10.06,3.07 2.62,2.05 4.09,4.77 4.43,8.15l-6.27 0c-0.21,-1.67 -1.09,-3.14 -2.64,-4.42 -1.55,-1.27 -3.59,-1.91 -6.14,-1.91 -2.39,0 -4.33,0.62 -5.84,1.85 -1.5,1.23 -2.25,2.96 -2.25,5.17 0,1.59 0.45,2.89 1.34,3.89 0.9,1.01 2.01,1.77 3.33,2.29 1.32,0.52 3.16,1.12 5.55,1.79 2.88,0.79 5.2,1.58 6.96,2.35 1.75,0.77 3.26,1.96 4.51,3.58 1.26,1.61 1.89,3.79 1.89,6.55 0,2.13 -0.57,4.14 -1.7,6.02 -1.13,1.88 -2.8,3.41 -5.01,4.58 -2.22,1.17 -4.83,1.75 -7.85,1.75zm28.66 -44.15l0 43.71 -5.7 0 0 -43.71 5.7 0zm23.33 0c4.77,0 8.9,0.89 12.39,2.67 3.49,1.78 6.17,4.32 8.03,7.62 1.86,3.3 2.79,7.19 2.79,11.66 0,4.48 -0.93,8.35 -2.79,11.64 -1.86,3.28 -4.54,5.79 -8.03,7.52 -3.49,1.74 -7.62,2.6 -12.39,2.6l-13.6 0 0 -43.71 13.6 0zm0 39.01c5.65,0 9.95,-1.49 12.92,-4.48 2.97,-2.99 4.45,-7.18 4.45,-12.58 0,-5.43 -1.49,-9.67 -4.48,-12.73 -2.99,-3.05 -7.28,-4.58 -12.89,-4.58l-7.9 0 0 34.37 7.9 0zm56.57 -5.02l-19.06 0 -3.52 9.72 -6.02 0 15.81 -43.46 6.58 0 15.74 43.46 -6.02 0 -3.51 -9.72zm-1.63 -4.64l-7.9 -22.07 -7.9 22.07 15.8 0zm31.67 -29.35c4.77,0 8.89,0.89 12.38,2.67 3.49,1.78 6.17,4.32 8.03,7.62 1.86,3.3 2.79,7.19 2.79,11.66 0,4.48 -0.93,8.35 -2.79,11.64 -1.86,3.28 -4.54,5.79 -8.03,7.52 -3.49,1.74 -7.61,2.6 -12.38,2.6l-13.61 0 0 -43.71 13.61 0zm0 39.01c5.64,0 9.95,-1.49 12.92,-4.48 2.97,-2.99 4.45,-7.18 4.45,-12.58 0,-5.43 -1.5,-9.67 -4.48,-12.73 -2.99,-3.05 -7.29,-4.58 -12.89,-4.58l-7.9 0 0 34.37 7.9 0zm36.43 -34.37l0 14.62 15.93 0 0 4.7 -15.93 0 0 15.05 17.82 0 0 4.7 -23.52 0 0 -43.77 23.52 0 0 4.7 -17.82 0z"/>
   <path fill="white" fill-rule="nonzero" d="M320.33 95.06c4.52,0 8.49,0.88 11.91,2.65 3.43,1.76 6.08,4.28 7.95,7.54 1.86,3.26 2.8,7.05 2.8,11.36 0,4.31 -0.94,8.08 -2.8,11.3 -1.87,3.22 -4.52,5.71 -7.95,7.48 -3.42,1.76 -7.39,2.65 -11.91,2.65l-15.02 0 0 -42.98 15.02 0zm-0.31 35.65c4.52,0 8.01,-1.23 10.47,-3.7 2.46,-2.46 3.69,-5.93 3.69,-10.4 0,-4.47 -1.23,-7.97 -3.69,-10.5 -2.46,-2.52 -5.95,-3.78 -10.47,-3.78l-6.09 0 0 28.38 6.09 0zm46.67 7.76c-4.02,0 -7.71,-0.95 -11.08,-2.84 -3.36,-1.88 -6.03,-4.5 -8,-7.85 -1.97,-3.34 -2.96,-7.13 -2.96,-11.35 0,-4.19 0.99,-7.96 2.96,-11.3 1.97,-3.35 4.64,-5.96 8,-7.85 3.37,-1.89 7.06,-2.83 11.08,-2.83 4.07,0 7.77,0.94 11.12,2.83 3.34,1.89 5.99,4.5 7.94,7.85 1.95,3.34 2.92,7.11 2.92,11.3 0,4.22 -0.97,8.01 -2.92,11.35 -1.95,3.35 -4.61,5.97 -7.97,7.85 -3.37,1.89 -7.06,2.84 -11.09,2.84zm0 -7.7c2.59,0 4.87,-0.58 6.84,-1.75 1.97,-1.17 3.51,-2.85 4.61,-5.02 1.11,-2.18 1.67,-4.7 1.67,-7.57 0,-2.88 -0.56,-5.39 -1.67,-7.54 -1.1,-2.16 -2.64,-3.81 -4.61,-4.96 -1.97,-1.15 -4.25,-1.73 -6.84,-1.73 -2.58,0 -4.87,0.58 -6.86,1.73 -1.99,1.15 -3.54,2.8 -4.65,4.96 -1.11,2.15 -1.66,4.66 -1.66,7.54 0,2.87 0.55,5.39 1.66,7.57 1.11,2.17 2.66,3.85 4.65,5.02 1.99,1.17 4.28,1.75 6.86,1.75zm48.95 -28.75l0 10.77 14.47 0 0 6.84 -14.47 0 0 11.39 16.32 0 0 7.02 -24.93 0 0 -43.04 24.93 0 0 7.02 -16.32 0zm36.27 36.45c-3,0 -5.69,-0.52 -8.09,-1.54 -2.41,-1.03 -4.3,-2.51 -5.7,-4.43 -1.39,-1.93 -2.11,-4.21 -2.15,-6.84l9.23 0c0.12,1.77 0.75,3.16 1.88,4.19 1.13,1.02 2.68,1.54 4.65,1.54 2.01,0 3.59,-0.49 4.74,-1.45 1.15,-0.96 1.72,-2.23 1.72,-3.79 0,-1.27 -0.39,-2.32 -1.17,-3.14 -0.78,-0.82 -1.75,-1.46 -2.92,-1.94 -1.17,-0.47 -2.78,-0.99 -4.84,-1.57 -2.79,-0.82 -5.06,-1.63 -6.8,-2.43 -1.74,-0.8 -3.24,-2.01 -4.49,-3.63 -1.26,-1.62 -1.88,-3.79 -1.88,-6.49 0,-2.55 0.64,-4.77 1.91,-6.65 1.27,-1.89 3.05,-3.34 5.35,-4.34 2.3,-1.01 4.93,-1.51 7.88,-1.51 4.44,0 8.04,1.07 10.81,3.23 2.77,2.15 4.3,5.16 4.58,9.02l-9.48 0c-0.08,-1.48 -0.7,-2.7 -1.87,-3.66 -1.17,-0.97 -2.72,-1.45 -4.65,-1.45 -1.68,0 -3.03,0.43 -4.03,1.29 -1.01,0.86 -1.51,2.11 -1.51,3.76 0,1.15 0.38,2.1 1.14,2.86 0.75,0.76 1.7,1.37 2.83,1.85 1.13,0.47 2.72,1.01 4.77,1.63 2.79,0.82 5.07,1.64 6.83,2.46 1.77,0.82 3.29,2.05 4.56,3.69 1.27,1.65 1.91,3.8 1.91,6.47 0,2.3 -0.6,4.43 -1.79,6.4 -1.19,1.97 -2.93,3.54 -5.23,4.71 -2.3,1.17 -5.03,1.76 -8.19,1.76zm49.2 -43.41l0 6.96 -11.46 0 0 36.02 -8.61 0 0 -36.02 -11.45 0 0 -6.96 31.52 0zm29.92 34.79l-17.11 0 -2.84 8.19 -9.05 0 15.46 -43.04 10.03 0 15.46 43.04 -9.12 0 -2.83 -8.19zm-2.34 -6.9l-6.22 -17.98 -6.21 17.98 12.43 0zm32.39 -27.89c4.51,0 8.49,0.88 11.91,2.65 3.43,1.76 6.08,4.28 7.94,7.54 1.87,3.26 2.81,7.05 2.81,11.36 0,4.31 -0.94,8.08 -2.81,11.3 -1.86,3.22 -4.51,5.71 -7.94,7.48 -3.42,1.76 -7.4,2.65 -11.91,2.65l-15.02 0 0 -42.98 15.02 0zm-0.31 35.65c4.52,0 8.01,-1.23 10.47,-3.7 2.46,-2.46 3.69,-5.93 3.69,-10.4 0,-4.47 -1.23,-7.97 -3.69,-10.5 -2.46,-2.52 -5.95,-3.78 -10.47,-3.78l-6.09 0 0 28.38 6.09 0zm46.67 7.76c-4.02,0 -7.71,-0.95 -11.08,-2.84 -3.36,-1.88 -6.03,-4.5 -8,-7.85 -1.97,-3.34 -2.96,-7.13 -2.96,-11.35 0,-4.19 0.99,-7.96 2.96,-11.3 1.97,-3.35 4.64,-5.96 8,-7.85 3.37,-1.89 7.06,-2.83 11.08,-2.83 4.07,0 7.77,0.94 11.11,2.83 3.35,1.89 6,4.5 7.95,7.85 1.95,3.34 2.92,7.11 2.92,11.3 0,4.22 -0.97,8.01 -2.92,11.35 -1.95,3.35 -4.61,5.97 -7.97,7.85 -3.37,1.89 -7.06,2.84 -11.09,2.84zm0 -7.7c2.59,0 4.87,-0.58 6.84,-1.75 1.97,-1.17 3.51,-2.85 4.61,-5.02 1.11,-2.18 1.67,-4.7 1.67,-7.57 0,-2.88 -0.56,-5.39 -1.67,-7.54 -1.1,-2.16 -2.64,-3.81 -4.61,-4.96 -1.97,-1.15 -4.25,-1.73 -6.84,-1.73 -2.58,0 -4.87,0.58 -6.86,1.73 -1.99,1.15 -3.54,2.8 -4.65,4.96 -1.11,2.15 -1.66,4.66 -1.66,7.54 0,2.87 0.55,5.39 1.66,7.57 1.11,2.17 2.66,3.85 4.65,5.02 1.99,1.17 4.28,1.75 6.86,1.75zm55.36 -35.71c4.51,0 8.48,0.88 11.91,2.65 3.43,1.76 6.07,4.28 7.94,7.54 1.87,3.26 2.8,7.05 2.8,11.36 0,4.31 -0.93,8.08 -2.8,11.3 -1.87,3.22 -4.51,5.71 -7.94,7.48 -3.43,1.76 -7.4,2.65 -11.91,2.65l-15.03 0 0 -42.98 15.03 0zm-0.31 35.65c4.51,0 8,-1.23 10.46,-3.7 2.47,-2.46 3.7,-5.93 3.7,-10.4 0,-4.47 -1.23,-7.97 -3.7,-10.5 -2.46,-2.52 -5.95,-3.78 -10.46,-3.78l-6.1 0 0 28.38 6.1 0zm46.67 7.76c-4.02,0 -7.72,-0.95 -11.08,-2.84 -3.37,-1.88 -6.04,-4.5 -8.01,-7.85 -1.97,-3.34 -2.95,-7.13 -2.95,-11.35 0,-4.19 0.98,-7.96 2.95,-11.3 1.97,-3.35 4.64,-5.96 8.01,-7.85 3.36,-1.89 7.06,-2.83 11.08,-2.83 4.06,0 7.77,0.94 11.11,2.83 3.35,1.89 5.99,4.5 7.94,7.85 1.95,3.34 2.93,7.11 2.93,11.3 0,4.22 -0.98,8.01 -2.93,11.35 -1.95,3.35 -4.6,5.97 -7.97,7.85 -3.37,1.89 -7.06,2.84 -11.08,2.84zm0 -7.7c2.58,0 4.86,-0.58 6.83,-1.75 1.97,-1.17 3.51,-2.85 4.62,-5.02 1.11,-2.18 1.66,-4.7 1.66,-7.57 0,-2.88 -0.55,-5.39 -1.66,-7.54 -1.11,-2.16 -2.65,-3.81 -4.62,-4.96 -1.97,-1.15 -4.25,-1.73 -6.83,-1.73 -2.59,0 -4.88,0.58 -6.87,1.73 -1.99,1.15 -3.54,2.8 -4.64,4.96 -1.11,2.15 -1.66,4.66 -1.66,7.54 0,2.87 0.55,5.39 1.66,7.57 1.1,2.17 2.65,3.85 4.64,5.02 1.99,1.17 4.28,1.75 6.87,1.75z"/>
   <path fill="white" fill-rule="nonzero" d="M340.7 195.1l-19 0 -3.04 8.99 -12.98 0 18.42 -50.89 14.35 0 18.42 50.89 -13.13 0 -3.04 -8.99zm-3.19 -9.57l-6.31 -18.63 -6.24 18.63 12.55 0zm82.58 -32.33l0 50.89 -12.4 0 0 -30.52 -11.38 30.52 -10.01 0 -11.45 -30.59 0 30.59 -12.4 0 0 -50.89 14.65 0 14.28 35.23 14.14 -35.23 14.57 0zm40.6 41.9l-18.99 0 -3.05 8.99 -12.98 0 18.42 -50.89 14.35 0 18.42 50.89 -13.12 0 -3.05 -8.99zm-3.19 -9.57l-6.31 -18.63 -6.23 18.63 12.54 0zm38.14 8.41l21.89 0 0 10.15 -35.96 0 0 -9.42 21.75 -31.32 -21.75 0 0 -10.15 35.96 0 0 9.42 -21.89 31.32zm54.08 10.66c-4.78,0 -9.17,-1.11 -13.15,-3.33 -3.99,-2.23 -7.16,-5.33 -9.5,-9.32 -2.35,-3.99 -3.52,-8.47 -3.52,-13.45 0,-4.98 1.17,-9.45 3.52,-13.41 2.34,-3.97 5.51,-7.06 9.5,-9.28 3.98,-2.23 8.37,-3.34 13.15,-3.34 4.79,0 9.18,1.11 13.16,3.34 3.99,2.22 7.13,5.31 9.43,9.28 2.3,3.96 3.44,8.43 3.44,13.41 0,4.98 -1.16,9.46 -3.48,13.45 -2.32,3.99 -5.46,7.09 -9.42,9.32 -3.96,2.22 -8.34,3.33 -13.13,3.33zm0 -11.31c4.07,0 7.32,-1.35 9.76,-4.06 2.44,-2.71 3.66,-6.28 3.66,-10.73 0,-4.5 -1.22,-8.09 -3.66,-10.77 -2.44,-2.68 -5.69,-4.02 -9.76,-4.02 -4.1,0 -7.38,1.33 -9.82,3.99 -2.44,2.66 -3.66,6.26 -3.66,10.8 0,4.5 1.22,8.08 3.66,10.77 2.44,2.68 5.72,4.02 9.82,4.02zm78.45 10.8l-12.39 0 -20.74 -31.39 0 31.39 -12.4 0 0 -50.89 12.4 0 20.74 31.54 0 -31.54 12.39 0 0 50.89zm40.68 -8.99l-19 0 -3.04 8.99 -12.98 0 18.42 -50.89 14.35 0 18.42 50.89 -13.12 0 -3.05 -8.99zm-3.19 -9.57l-6.31 -18.63 -6.23 18.63 12.54 0zm43.36 19.07c-3.73,0 -7.06,-0.6 -10.01,-1.81 -2.95,-1.21 -5.3,-3 -7.07,-5.37 -1.76,-2.36 -2.69,-5.22 -2.79,-8.55l13.2 0c0.19,1.88 0.84,3.32 1.95,4.31 1.12,0.99 2.57,1.49 4.35,1.49 1.84,0 3.29,-0.42 4.35,-1.27 1.07,-0.85 1.6,-2.02 1.6,-3.52 0,-1.25 -0.42,-2.29 -1.27,-3.11 -0.85,-0.83 -1.89,-1.5 -3.12,-2.03 -1.23,-0.54 -2.98,-1.14 -5.25,-1.82 -3.29,-1.01 -5.97,-2.03 -8.05,-3.04 -2.08,-1.02 -3.87,-2.52 -5.37,-4.5 -1.49,-1.98 -2.25,-4.57 -2.25,-7.75 0,-4.74 1.72,-8.45 5.15,-11.14 3.43,-2.68 7.91,-4.02 13.42,-4.02 5.6,0 10.12,1.34 13.56,4.02 3.43,2.69 5.26,6.42 5.51,11.21l-13.42 0c-0.09,-1.65 -0.7,-2.94 -1.81,-3.88 -1.11,-0.95 -2.54,-1.42 -4.28,-1.42 -1.5,0 -2.7,0.4 -3.62,1.2 -0.92,0.8 -1.38,1.95 -1.38,3.44 0,1.65 0.77,2.93 2.32,3.85 1.55,0.92 3.96,1.91 7.25,2.97 3.29,1.11 5.96,2.18 8.01,3.19 2.06,1.02 3.83,2.49 5.33,4.42 1.5,1.94 2.25,4.43 2.25,7.47 0,2.9 -0.74,5.54 -2.21,7.9 -1.48,2.37 -3.62,4.26 -6.42,5.66 -2.8,1.4 -6.11,2.1 -9.93,2.1z"/>
  </g>
 </g>
</svg>
